<ttFont>
          <CharString index="0">
            -44 12 36 -27 52 hhcurveto
            36 26 9 6 13 hvcurveto
            82 -32 vlineto
            -18 -17 10 25 hvcurveto
            251 vlineto
            105 -68 61 -142 -128 -86 -55 -91 -9 0 -7 1 -6 vhcurveto
            116 14 hlineto
            28 20 31 77 74 16 -35 -45 vhcurveto
            -44 vlineto
            return
          </CharString>
          <CharString index="1">
            rmoveto
            131 90 callgsubr
            -70 -49 -31 -63 -91 -36 50 101 -4 vhcurveto
            361 36 hlineto
            187 -79 81 -152 -168 -84 -86 -189 -189 83 -86 169 vhcurveto
            -128 331 rmoveto
            84 9 39 40 80 hhcurveto
            64 42 -35 -89 hvcurveto
            return
          </CharString>
          <CharString index="2">
            -193 -137 -40 -143 -128 107 -20 60 hvcurveto
            36 96 rmoveto
            -53 -27 22 42 70 93 16 114 hvcurveto
            -24 vlineto
            -76 -47 -50 -80 vhcurveto
            return
          </CharString>
          <CharString index="3">
            -105 callgsubr
            endchar
          </CharString>
          <CharString index="4">
            182 109 87 179 79 callgsubr
            -429 vlineto
            -106 -61 -55 -102 -102 -59 55 106 vhcurveto
            429 -128 -432 vlineto
            -179 109 -87 180 vhcurveto
            return
          </CharString>
          <CharString index="5">
            56 -72 rlineto
            103 hlineto
            -105 135 rlineto
            -108 hlineto
            return
          </CharString>
          <CharString index="6">
            -75 -52 -53 -66 -60 -37 25 75 vhcurveto
            334 -120 -355 vlineto
            -134 69 -49 101 return
          </CharString>
          <CharString index="7">
            -72 callsubr
            -51 callgsubr
            -89 callgsubr
            -347 -90 callsubr
            return
          </CharString>
          <CharString index="8">
            rmoveto
            161 83 82 163 hvcurveto
            463 -120 -273 vlineto
            -80 -53 -54 -70 -56 -36 25 74 vhcurveto
            308 -120 -329 vlineto
            -133 71 -49 102 75 52 32 45 35 vhcurveto
            5 -33 hlineto
            -96 -1 -42 -47 -88 hhcurveto
            -48 -43 15 44 hvcurveto
            -117 -10 hlineto
            -100 88 -47 122 vhcurveto
            endchar
          </CharString>
          <CharString index="9">
            541 109 -413 187 363 109 -363 172 407 109 -535 hlineto
            return
          </CharString>
          <CharString index="10">
            123 411 hlineto
            17 -2 33 5 99 callsubr
            -4 15 -29 16 -23 rlinecurve
            300 -413 rlineto
            120 686 -123 -408 hlineto
            -72 callgsubr
            hlineto
            return
          </CharString>
          <CharString index="11">
            -39 callsubr
            -74 -92 callsubr
            262 -129 -39 callsubr
            -73 132 rlineto
            -121 hlineto
            -1 -3 rlineto
            return
          </CharString>
          <CharString index="12">
            128 265 213 hlineto
            130 -265 rlineto
            140 hlineto
            -147 285 rlineto
            81 32 41 68 93 vvcurveto
            127 -73 81 -151 vhcurveto
            -362 hlineto
            128 -313 rmoveto
            204 224 vlineto
            69 36 -37 -62 -65 -39 -40 -66 hvcurveto
            return
          </CharString>
          <CharString index="13">
            -39 callsubr
            -97 callgsubr
            return
          </CharString>
          <CharString index="14">
            rmoveto
            168 122 59 154 hvcurveto
            hintmask 11101010
            246 -431 -69 136 vvcurveto
            49 55 27 90 vhcurveto
            hintmask 11101100
            -75 callgsubr
            hintmask 11101010
            -253 431 82 -155 vvcurveto
            -52 -47 -35 -111 vhcurveto
            hintmask 11110010
            -100 -61 39 67 hvcurveto
            1 18 rlineto
            -129 hlineto
            -4 -1 -10 -7 vvcurveto
            -145 134 -66 153 vhcurveto
            endchar
          </CharString>
          <CharString index="15">
            132 -45 callsubr
            -1 -3 rlineto
            return
          </CharString>
          <CharString index="16">
            rmoveto
            142 81 78 131 hvcurveto
            -116 hlineto
            -72 -36 -40 -68 -89 -36 56 115 vhcurveto
            12 vlineto
            116 37 57 83 72 31 -38 -74 115 callgsubr
            139 -83 70 -140 -163 -81 -86 -189 -189 80 -86 164 vhcurveto
            endchar
          </CharString>
          <CharString index="17">
            -738 rmoveto
            -106 callgsubr
            return
          </CharString>
          <CharString index="18">
            127 279 hlineto
            264 407 rlineto
            -141 hlineto
            -180 -292 rlineto
            -5 hlineto
            -183 292 rlineto
            -147 hlineto
            265 -407 rlineto
            return
          </CharString>
          <CharString index="19">
            hlineto
            202 -110 rmoveto
            108 110 -108 hlineto
            return
          </CharString>
          <CharString index="20">
            rmoveto
            -98 callsubr
            endchar
          </CharString>
          <CharString index="21">
            -66 callsubr
            hintmask 01111100
            -81 callsubr
            hintmask 10111100
            -101 callsubr
            vhcurveto
            endchar
          </CharString>
          <CharString index="22">
            -735 -105 callgsubr
            return
          </CharString>
          <CharString index="23">
            rmoveto
            173 130 84 179 hvcurveto
            -126 hlineto
            -100 -69 -55 -106 -139 -64 77 160 vhcurveto
            20 vlineto
            157 65 80 138 vhcurveto
            hintmask 11111000
            100 70 -55 -102 hvcurveto
            131 hlineto
            179 -132 86 -171 -210 -122 -114 -241 vhcurveto
            hintmask 11110100
            -247 122 -108 210 vhcurveto
            endchar
          </CharString>
          <CharString index="24">
            -66 callsubr
            hintmask 0111110010000000
            -81 callsubr
            hintmask 1011110010000000
            -101 callsubr
            vhcurveto
            endchar
          </CharString>
          <CharString index="25">
            -87 callgsubr
            endchar
          </CharString>
          <CharString index="26">
            10 -70 rlineto
            99 0 callsubr
            -306 hlineto
            return
          </CharString>
          <CharString index="27">
            134 -79 callgsubr
            return
          </CharString>
          <CharString index="28">
            rmoveto
            133 99 44 123 hvcurveto
            hintmask 11110101
            -32 callsubr
            hintmask 11110110
            -74 callgsubr
            hintmask 11110101
            -40 callsubr
            hintmask 11111001
            -62 callgsubr
            endchar
          </CharString>
          <CharString index="29">
            -96 -361 rmoveto
            -33 -23 21 32 31 23 22 33 hvcurveto
            202 hlineto
            33 25 -19 -34 -32 -29 -21 -37 hvcurveto
            endchar
          </CharString>
          <CharString index="30">
            rmoveto
            82 51 29 43 35 hvcurveto
            7 hlineto
            return
          </CharString>
          <CharString index="31">
            -107 -429 hlineto
            -106 -61 -55 -102 -102 -59 55 106 vhcurveto
            429 -128 -432 vlineto
            -179 109 -87 180 182 109 87 179 vhcurveto
            return
          </CharString>
          <CharString index="32">
            568 109 -378 hlineto
            369 515 rlineto
            62 -533 -109 344 vlineto
            -370 -516 rlineto
            return
          </CharString>
          <CharString index="33">
            23 0 -71 callsubr
            return
          </CharString>
          <CharString index="34">
            -186 -496 rmoveto
            -18 callgsubr
            21 vlineto
            157 76 80 138 139 76 -80 -157 vhcurveto
            return
          </CharString>
          <CharString index="35">
            rmoveto
            115 41 69 61 hvcurveto
            -79 hlineto
            return
          </CharString>
          <CharString index="36">
            109 187 -42 callsubr
            return
          </CharString>
          <CharString index="37">
            -13 -36 -29 -23 -46 -12 rrcurveto
            46 -58 -79 22 -95 hhcurveto
            -38 callgsubr
            return
          </CharString>
          <CharString index="38">
            138 448 rmoveto
            -72 -35 34 60 59 35 35 72 71 36 -35 -59 -60 -36 -34 -71 hvcurveto
            return
          </CharString>
          <CharString index="39">
            -223 -430 rmoveto
            -1 callsubr
            14 vlineto
            114 38 56 97 96 39 -56 -114 vhcurveto
            return
          </CharString>
          <CharString index="40">
            rmoveto
            468 146 vlineto
            130 72 -74 -150 hvcurveto
            -20 vlineto
            -150 -1 -71 -74 -130 hhcurveto
            return
          </CharString>
          <CharString index="41">
            rmoveto
            76 56 33 49 37 hvcurveto
            7 hlineto
            return
          </CharString>
          <CharString index="42">
            -868 rmoveto
            -98 callsubr
            return
          </CharString>
          <CharString index="43">
            591 -94 callsubr
            return
          </CharString>
          <CharString index="44">
            26 3 12 9 17 hhcurveto
            return
          </CharString>
          <CharString index="45">
            rmoveto
            141 80 70 137 hvcurveto
            491 -129 -491 vlineto
            -64 -31 -35 -61 -63 -33 33 60 vhcurveto
            return
          </CharString>
          <CharString index="46">
            758 -96 callgsubr
            return
          </CharString>
          <CharString index="47">
            hstemhm
            31 123 -97 117 return
          </CharString>
          <CharString index="48">
            736 -94 callsubr
            return
          </CharString>
          <CharString index="49">
            rmoveto
            82 hlineto
            43 62 rlineto
            -16 37 45 -9 53 hhcurveto
            172 87 86 189 97 -23 69 -46 45 hvcurveto
            71 101 rlineto
            -81 hlineto
            -44 -63 rlineto
            17 -37 -45 9 -54 hhcurveto
            -171 -88 -86 -189 -98 24 -70 45 -45 hvcurveto
            72 103 rmoveto
            -11 26 -6 35 44 vvcurveto
            12 vlineto
            114 39 56 96 30 24 -7 -10 19 vhcurveto
            -73 -337 rmoveto
            -30 -23 6 10 -19 hvcurveto
            190 270 rlineto
            12 -26 6 -35 -43 vvcurveto
            -12 vlineto
            -114 -39 -56 -97 vhcurveto
            endchar
          </CharString>
          <CharString index="50">
            -39 callsubr
            48 130 -1 1 rlineto
            -114 hlineto
            return
          </CharString>
          <CharString index="51">
            -23 callgsubr
            85 132 -127 127 hstemhm
            -48 callsubr
            -26 145 hintmask 00000000
            hintmask 10101101
            496 723 -34 callsubr
            hintmask 10101110
            -12 -35 -28 -22 -43 -13 rrcurveto
            -75 -306 hlineto
            -101 callsubr
            76 56 33 49 37 vhcurveto
            7 hlineto
            hintmask 01101110
            10 -70 rlineto
            99 475 hlineto
            hintmask 10101101
            27 callsubr
            return
          </CharString>
          <CharString index="52">
            rmoveto
            -90 -32 52 113 hvcurveto
            13 vlineto
            114 33 52 89 84 36 -60 -107 vhcurveto
            -12 vlineto
            -106 -35 -59 -85 vhcurveto
            return
          </CharString>
          <CharString index="53">
            10 -70 rlineto
            99 723 -120 -258 -6 hlineto
            49 -32 -54 24 -72 hhcurveto
            -117 -85 -85 -189 hvcurveto
            return
          </CharString>
          <CharString index="54">
            94 139.17 101.65 120.18001 95 return
          </CharString>
          <CharString index="55">
            -102 callsubr
            -26 -2 callsubr
            return
          </CharString>
          <CharString index="56">
            hstem
            -44 callsubr
            return
          </CharString>
          <CharString index="57">
            -46 -41 35 -51 hhcurveto
            return
          </CharString>
          <CharString index="58">
            -67 -27 -54 -62 hvcurveto
            return
          </CharString>
          <CharString index="59">
            67 -39 callgsubr
            return
          </CharString>
          <CharString index="60">
            29 15 16 30 vhcurveto
            50 83 hlineto
            8 -19 -36 7 -28 hhcurveto
            -103 -29 -69 -68 hvcurveto
            -68 -76 -98 76 return
          </CharString>
          <CharString index="61">
            -12 -37 callgsubr
            return
          </CharString>
          <CharString index="62">
            rlineto
            -48 callgsubr
            return
          </CharString>
          <CharString index="63">
            71 128 return
          </CharString>
          <CharString index="64">
            rmoveto
            305 82 -305 hlineto
            return
          </CharString>
          <CharString index="65">
            109 5 callgsubr
            return
          </CharString>
          <CharString index="66">
            rmoveto
            -8 callsubr
            endchar
          </CharString>
          <CharString index="67">
            -198 327 70 -113 vvcurveto
            -42 -53 -16 -53 vhcurveto
            return
          </CharString>
          <CharString index="68">
            rmoveto
            95 hlineto
            return
          </CharString>
          <CharString index="69">
            1 callsubr
            429 131 return
          </CharString>
          <CharString index="70">
            85 124 95 return
          </CharString>
          <CharString index="71">
            80 callgsubr
            -75 -21 261 106 223 108 return
          </CharString>
          <CharString index="72">
            53 21 -29 -21 3 hvcurveto
            79 hlineto
            return
          </CharString>
          <CharString index="73">
            rmoveto
            -127 64 vlineto
            return
          </CharString>
          <CharString index="74">
            rmoveto
            -28 callgsubr
          </CharString>
          <CharString index="75">
            205 -327 -69 100 vvcurveto
            28 29 24 66 vhcurveto
            return
          </CharString>
          <CharString index="76">
            96 -95 97 148 -37 callsubr
            return
          </CharString>
          <CharString index="77">
            37 124 270 124 return
          </CharString>
          <CharString index="78">
            -12 -4 callgsubr
            return
          </CharString>
          <CharString index="79">
            23 37 vvcurveto
            66 -50 36 -73 -70 -52 -40 -62 vhcurveto
            -14 76 10 vlineto
            28 20 return
          </CharString>
          <CharString index="80">
            59 callgsubr
            hintmask 00000000
            hintmask 10101110
            9 callsubr
            hintmask 01011110
            -54 callsubr
            hintmask 10101110
            63 callsubr
            vhcurveto
            hintmask 01101110
            return
          </CharString>
          <CharString index="81">
            215 131 114 241 101 -23 78 -42 58 hvcurveto
            return
          </CharString>
          <CharString index="82">
            rlineto
            44 hlineto
            32 9 -8 -16 -19 -16 -5 -27 hvcurveto
            return
          </CharString>
          <CharString index="83">
            120 274 hlineto
            97 45 45 82 vhcurveto
            38 hlineto
            return
          </CharString>
          <CharString index="84">
            129 vstem
            71 hmoveto
            -95 callsubr
            return
          </CharString>
          <CharString index="85">
            -159 vmoveto
            -35 -18 19 30 29 18 17 35 34 19 -17 -29 -30 -19 -19 -34 hvcurveto
            endchar
          </CharString>
          <CharString index="86">
            613 868 -34 callsubr
            -9 -24 -15 -18 -23 -13 rrcurveto
            return
          </CharString>
          <CharString index="87">
            -182 87 106 102 68 85 188 84 return
          </CharString>
          <CharString index="88">
            -172 -87 -86 -189 -189 87 -86 172 hvcurveto
            return
          </CharString>
          <CharString index="89">
            132 -60 callgsubr
            return
          </CharString>
          <CharString index="90">
            69 hlineto
            hintmask 1110101010000000
            -63 callsubr
            hintmask 1111010100000000
            -50 callgsubr
            hintmask 1110110100000000
            -71 callgsubr
            return
          </CharString>
          <CharString index="91">
            -96 callgsubr
            hintmask 11111001
            return
          </CharString>
          <CharString index="92">
            29 19 16 28 30 vvcurveto
            57 -41 47 -80 -80 -41 -47 -57 -30 16 -28 29 -19 vhcurveto
            return
          </CharString>
          <CharString index="93">
            23 -12 108 109 108 373 -20 return
          </CharString>
          <CharString index="94">
            -21 -3 callsubr
            return
          </CharString>
          <CharString index="95">
            86 callsubr
            hintmask 11100100
            70 hmoveto
            -24 callsubr
            hintmask 11001100
            113 vlineto
            hintmask 11100100
            -24 callgsubr
            hintmask 11010100
            -11 83 rlineto
            -99 hlineto
            return
          </CharString>
          <CharString index="96">
            -203 -143 -40 -143 -128 127 -20 70 hvcurveto
            271 331 rmoveto
            84 9 37 40 79 hhcurveto
            63 41 -35 -89 hvcurveto
            -487 -235 rmoveto
            -58 -29 22 42 70 102 16 121 hvcurveto
            -24 vlineto
            -79 -50 -47 -86 vhcurveto
            endchar
          </CharString>
          <CharString index="97">
            -65 callsubr
            endchar
          </CharString>
          <CharString index="98">
            -56 callgsubr
            53 132 85 callsubr
            return
          </CharString>
          <CharString index="99">
            127 686 -127 hlineto
            return
          </CharString>
          <CharString index="100">
            -51 callsubr
            324 128 vstem
            return
          </CharString>
          <CharString index="101">
            hstemhm
            41 118 -106 121 194 118 -106 121 return
          </CharString>
          <CharString index="102">
            21 4 19 29 53 hhcurveto
            return
          </CharString>
          <CharString index="103">
            69 196 68 return
          </CharString>
          <CharString index="104">
            526 -20 return
          </CharString>
          <CharString index="105">
            -735 -77 callsubr
            return
          </CharString>
          <CharString index="106">
            -114 -39 -56 -96 -97 -38 56 114 vhcurveto
            return
          </CharString>
          <CharString index="107">
            526 -120 return
          </CharString>
          <CharString index="108">
            44 131 return
          </CharString>
          <CharString index="109">
            22 callsubr
            287 126 -111 129 return
          </CharString>
          <CharString index="110">
            hstem
            -30 callsubr
            vstem
            return
          </CharString>
          <CharString index="111">
            107 95 108 return
          </CharString>
          <CharString index="112">
            -182 rmoveto
            23 21 5 9 24 hvcurveto
            54 callsubr
            hvcurveto
            hintmask 01100000
            28 21 28 13 14 vhcurveto
            4 -76 vlineto
            hintmask 10100000
            -28 -26 -25 -30 -49 vvcurveto
            -68 55 -21 49 vhcurveto
            endchar
          </CharString>
          <CharString index="113">
            vstem
            71 hmoveto
            128 199 hlineto
            137 120 206 -319 rlineto
            151 hlineto
            -271 409 266 277 rlineto
            -156 hlineto
            -333 -347 rlineto
            347 -128 vlineto
            return
          </CharString>
          <CharString index="114">
            576 221 110 -569 -110 221 return
          </CharString>
          <CharString index="115">
            hstemhm
            67 120 -46 4 callsubr
            -49 120 return
          </CharString>
          <CharString index="116">
            246 -12 rmoveto
            67 59 27 55 35 hvcurveto
            6 hlineto
            return
          </CharString>
          <CharString index="117">
            52 78 14 67 46 -44 18 -52 3 hvcurveto
            return
          </CharString>
          <CharString index="118">
            37 12 callsubr
            return
          </CharString>
          <CharString index="119">
            122 236 125 return
          </CharString>
          <CharString index="120">
            736 15 callgsubr
            return
          </CharString>
          <CharString index="121">
            174 -68 callgsubr
            return
          </CharString>
          <CharString index="122">
            -62 callsubr
            37 -127 -36 vlineto
            25 callgsubr
          </CharString>
          <CharString index="123">
            -605 -77 callsubr
            return
          </CharString>
          <CharString index="124">
            115 0 140 246 140 0 -20 return
          </CharString>
          <CharString index="125">
            -21 526 53 callsubr
            -723 vmoveto
            -17 callgsubr
            return
          </CharString>
          <CharString index="126">
            rmoveto
            -1 3 rlineto
            -121 hlineto
            -81 -132 rlineto
            95 hlineto
            return
          </CharString>
          <CharString index="127">
            -37 callsubr
            91 callsubr
            return
          </CharString>
          <CharString index="128">
            -182 98 99 104 407 -20 return
          </CharString>
          <CharString index="129">
            hstemhm
            44 129 -112 129 return
          </CharString>
          <CharString index="130">
            68 200 49 -49 89 12 -20 hstemhm
            132 76 return
          </CharString>
          <CharString index="131">
            75 52 53 66 60 37 -25 -75 vhcurveto
            -334 120 355 vlineto
            134 -70 49 -100 -76 -56 -33 -49 -37 vhcurveto
            -7 hlineto
            return
          </CharString>
          <CharString index="132">
            -80 callsubr
            3 127 -92 40 callsubr
            -90 145 hintmask 11011100
            return
          </CharString>
          <CharString index="133">
            -477 9 -21 710 -20 hstem
            -231 628 vstem
            -231 -12 -20 callgsubr
            endchar
          </CharString>
          <CharString index="134">
            80 32 39 62 100 vvcurveto
            54 vlineto
            return
          </CharString>
          <CharString index="135">
            81 32 39 61 101 vvcurveto
            54 vlineto
            return
          </CharString>
          <CharString index="136">
            736 -67 callgsubr
            return
          </CharString>
          <CharString index="137">
            127 7 callsubr
            hlineto
            return
          </CharString>
          <CharString index="138">
            rmoveto
            92 38 49 59 36 -18 30 -36 18 hvcurveto
            return
          </CharString>
          <CharString index="139">
            hstem
            11 callsubr
            vstem
            return
          </CharString>
          <CharString index="140">
            -366 21 -13 callsubr
            return
          </CharString>
          <CharString index="141">
            588 -12 callgsubr
            return
          </CharString>
          <CharString index="142">
            -369 rmoveto
            236 68 -76 hlineto
            hintmask 1101010100000000
            289 -39 vlineto
            hintmask 1101101100000000
            56 callsubr
            return
          </CharString>
          <CharString index="143">
            39 callsubr
            34 return
          </CharString>
          <CharString index="144">
            24 callgsubr
            hintmask 11110100
            return
          </CharString>
          <CharString index="145">
            -335 -230 67 callgsubr
            return
          </CharString>
          <CharString index="146">
            -53 callsubr
            hstemhm
            41 118 -106 121 return
          </CharString>
          <CharString index="147">
            132 59 callsubr
            return
          </CharString>
          <CharString index="148">
            -39 -9 40 61 hvcurveto
            13 vlineto
            61 9 40 39 40 8 -40 -61 vhcurveto
            -13 vlineto
            -61 -8 -40 -40 vhcurveto
            return
          </CharString>
          <CharString index="149">
            148 hlineto
            110 452 rlineto
            return
          </CharString>
          <CharString index="150">
            104 -120 -115 48 vlineto
            return
          </CharString>
          <CharString index="151">
            124 127 -124 hlineto
            return
          </CharString>
          <CharString index="152">
            -107 -182 94 614 -20 return
          </CharString>
          <CharString index="153">
            -10 70 rlineto
            -99 hlineto
            return
          </CharString>
          <CharString index="154">
            70 -173 rmoveto
            120 234 6 hlineto
            -49 32 54 -24 72 hhcurveto
            117 85 85 189 return
          </CharString>
          <CharString index="155">
            -311 617 82 hstem
            14 305 vstem
            14 617 -43 callsubr
            endchar
          </CharString>
          <CharString index="156">
            90 53 41 139 139 -53 42 -90 -89 -53 -42 -139 -138 53 -42 89 hvcurveto
            return
          </CharString>
          <CharString index="157">
            -12 108 -96 226 -205 -7 callgsubr
            return
          </CharString>
          <CharString index="158">
            -21 265 108 204 109 return
          </CharString>
          <CharString index="159">
            81 -46 81 hstemhm
            return
          </CharString>
          <CharString index="160">
            -20 102 115 hstem
            70 39 callgsubr
            return
          </CharString>
          <CharString index="161">
            54 -27 vlineto
            -36 -14 25 27 return
          </CharString>
          <CharString index="162">
            0 98 callgsubr
            return
          </CharString>
          <CharString index="163">
            -34 -20 -54 -16 -33 -4 rrcurveto
            return
          </CharString>
          <CharString index="164">
            hstemhm
            1 callsubr
            return
          </CharString>
          <CharString index="165">
            rmoveto
            132 hlineto
            55 149 rlineto
            314 hlineto
            56 -149 rlineto
            138 hlineto
            return
          </CharString>
          <CharString index="166">
            hstemhm
            -38 callsubr
            return
          </CharString>
          <CharString index="167">
            190 -12 63 95 64 87 64 return
          </CharString>
          <CharString index="168">
            -107 -12 97 356 97 return
          </CharString>
          <CharString index="169">
            127 188 129 return
          </CharString>
          <CharString index="170">
            -192 81 -84 129 return
          </CharString>
          <CharString index="171">
            rmoveto
            125 127 -50 hlineto
            50 148 rlineto
            -65 hlineto
            -60 -159 rlineto
            return
          </CharString>
          <CharString index="172">
            110 callsubr
            72 64 -19 95 -25 120 return
          </CharString>
          <CharString index="173">
            rmoveto
            223 191 vlineto
            70 36 -41 -69 -70 -39 -43 -67 hvcurveto
            endchar
          </CharString>
          <CharString index="174">
            vhcurveto
            74 20 hlineto
            31 16 17 35 34 12 return
          </CharString>
          <CharString index="175">
            132 rlineto
            147 -132 -147 vlineto
            return
          </CharString>
          <CharString index="176">
            hstem
            76 127 vstem
            return
          </CharString>
          <CharString index="177">
            -12 73 -40 -21 276 73 -12 73 215 73 -12 -20 hstemhm
            return
          </CharString>
          <CharString index="178">
            -29 callgsubr
            43 98 354 98 return
          </CharString>
          <CharString index="179">
            rmoveto
            98 hlineto
            55 174 -1 3 rlineto
            return
          </CharString>
          <CharString index="180">
            hstem
            37 122 229 116 vstem
            return
          </CharString>
          <CharString index="181">
            -82 132 -45 callsubr
            -1 -3 return
          </CharString>
          <CharString index="182">
            rmoveto
            255 68 -161 hlineto
            9 13 return
          </CharString>
          <CharString index="183">
            77 -68 76 91 75 -68 77 return
          </CharString>
          <CharString index="184">
            78 -45 callgsubr
            return
          </CharString>
          <CharString index="185">
            103 -70 -21 435 103 return
          </CharString>
          <CharString index="186">
            114 callsubr
            hlineto
            return
          </CharString>
          <CharString index="187">
            vstem
            70 hmoveto
            120 return
          </CharString>
          <CharString index="188">
            129 -1 3 rlineto
            return
          </CharString>
          <CharString index="189">
            rmoveto
            -13 -8 -6 -23 vhcurveto
            hintmask 1011011101000000
            -14 -56 64 26 hlineto
            return
          </CharString>
          <CharString index="190">
            rmoveto
            21 hlineto
            170 197 rlineto
            48 vlineto
            -133 -55 rlineto
            return
          </CharString>
          <CharString index="191">
            rmoveto
            474 196 rlineto
            120 vlineto
            -474 197 rlineto
            return
          </CharString>
          <CharString index="192">
            -60 callgsubr
            hintmask 10111101
            return
          </CharString>
          <CharString index="193">
            3 callgsubr
            53 callgsubr
            return
          </CharString>
          <CharString index="194">
            206 -18 rlineto
            106 vlineto
            -206 -17 17 188 rlineto
            return
          </CharString>
          <CharString index="195">
            -21 723 68 callgsubr
            return
          </CharString>
          <CharString index="196">
            -182 97 106 -13 callsubr
            return
          </CharString>
          <CharString index="197">
            -20 -51 callsubr
            return
          </CharString>
          <CharString index="198">
            55 85 callgsubr
            return
          </CharString>
          <CharString index="199" raw="1">
            f7031d12 b70b  
          </CharString>
          <CharString index="200">
            -182 rmoveto
            22 22 5 9 23 hvcurveto
            54 -26 vlineto
            return
          </CharString>
          <CharString index="201">
            0 127 559 -20 hstemhm
            95 125 -101 76 return
          </CharString>
          <CharString index="202">
            473 97 -473 hlineto
            return
          </CharString>
          <CharString index="203">
            135 -51 callsubr
            return
          </CharString>
          <CharString index="204">
            472 97 -472 hlineto
            return
          </CharString>
          <CharString index="205">
            -49 84 -200 -84 vlineto
            return
          </CharString>
          <CharString index="206">
            vvcurveto
            5 3 3 return
          </CharString>
          <CharString index="207">
            43 35 14 46 vhcurveto
            62 vlineto
            -96 -82 -18 -94 return
          </CharString>
          <CharString index="208">
            hstem
            42 918 vstem
            239 72 rmoveto
            49 hlineto
            return
          </CharString>
          <CharString index="209">
            -735 -66 callsubr
            return
          </CharString>
          <CharString index="210">
            -21 vlineto
            -157 -75 -79 -140 vhcurveto
            endchar
          </CharString>
          <CharString index="211">
            -186 -227 -12 callgsubr
            return
          </CharString>
          <CharString index="212">
            118 34 callsubr
            return
          </CharString>
          <CharString index="213">
            130 -80 80 hstemhm
            return
          </CharString>
          <CharString index="214">
            56 38 50 hstemhm
            return
          </CharString>
          <CharString index="215">
            -79 callgsubr
            35 135 return
          </CharString>
          <CharString index="216">
            vlineto
            380 -148 -380 -148 rlineto
            return
          </CharString>
          <CharString index="217">
            56 38 50 -60 callsubr
            return
          </CharString>
          <CharString index="218">
            -90 98 hstemhm
            85 120 179 120 return
          </CharString>
          <CharString index="219">
            75 56 -60 73 hhcurveto
            94 47 72 0 hvcurveto
            return
          </CharString>
          <CharString index="220">
            -723 rmoveto
            -17 callgsubr
            return
          </CharString>
          <CharString index="221">
            120 306 return
          </CharString>
        <CharString name=".notdef">
          -143 0 50 600 50 hstem
          0 50 400 50 vstem
          0 vmoveto
          500 700 -500 hlineto
          250 -305 rmoveto
          -170 255 rlineto
          340 hlineto
          -370 -555 rmoveto
          510 vlineto
          170 -255 rlineto
          230 -255 rmoveto
          -170 255 170 255 rlineto
          -370 -555 rmoveto
          170 255 170 -255 rlineto
          endchar
        </CharString>
        <CharString name="A">
          -81 callgsubr
          57 callgsubr
          4 hmoveto
          -106 callgsubr
          endchar
        </CharString>
        <CharString name="AE">
          356 0 109 40 108 39 -42 callsubr
          hstem
          -4 949 vstem
          -4 hmoveto
          -22 callgsubr
        </CharString>
        <CharString name="AEacute">
          356 0 109 40 108 39 -42 callsubr
          50 132 hstem
          -4 949 vstem
          452 -59 callsubr
          -537 -868 rmoveto
          -22 callgsubr
        </CharString>
        <CharString name="Aacute">
          -81 callgsubr
          50 132 57 callgsubr
          304 -59 callsubr
          -381 -868 -103 callgsubr
        </CharString>
        <CharString name="Abreve">
          -81 callgsubr
          52 80 57 callgsubr
          351 738 -100 callsubr
          endchar
        </CharString>
        <CharString name="Acircumflex">
          -81 callgsubr
          47 135 57 callgsubr
          192 -68 callgsubr
          -294 -868 -103 callgsubr
        </CharString>
        <CharString name="Adieresis">
          -81 callgsubr
          72 110 hstem
          198 4 callsubr
          vstem
          198 -61 callsubr
          -396 -868 -103 callgsubr
        </CharString>
        <CharString name="Agrave">
          -81 callgsubr
          50 132 57 callgsubr
          304 29 callsubr
          -192 -865 -103 callgsubr
        </CharString>
        <CharString name="Amacron">
          -81 callgsubr
          76 82 57 callgsubr
          199 762 -43 callsubr
          -195 -844 -103 callgsubr
        </CharString>
        <CharString name="Aogonek">
          59 -182 68 135 -21 149 108 319 110 hstem
          516 95 vstem
          624 -182 rmoveto
          24 26 5 9 26 hvcurveto
          54 -35 vlineto
          -37 -17 18 31 25 16 24 15 16 hvcurveto
          57 hlineto
          -267 686 rlineto
          -161 hlineto
          -267 -686 rlineto
          132 hlineto
          55 149 rlineto
          314 hlineto
          56 -149 rlineto
          -24 -23 -21 -28 -42 vvcurveto
          -68 53 -21 55 vhcurveto
          -393 439 rmoveto
          70 188 14 37 25 80 5 14 rlinecurve
          5 hlineto
          5 -14 25 -81 14 -36 70 -188 rcurveline
          endchar
        </CharString>
        <CharString name="Aring">
          -81 callgsubr
          18 53 93 53 hstemhm
          253 53 92 53 hintmask 00000000
          hintmask 11111110
          352 704 -70 callgsubr
          -348 -757 58 callsubr
          hintmask 11101110
          -267 686 rlineto
          -161 hlineto
          -40 -429 rmoveto
          70 188 14 37 25 80 5 14 rlinecurve
          5 hlineto
          5 -14 25 -81 14 -36 70 -188 rcurveline
          endchar
        </CharString>
        <CharString name="Aringacute">
          59 21 -21 149 108 432 -20 114 53 25 132 hstemhm
          252 53 93 53 hintmask 00000000
          hintmask 11111110
          300 861 -94 callsubr
          -377 -993 58 callsubr
          -265 681 rlineto
          hintmask 11110110
          10 15 7 19 21 vvcurveto
          55 -38 45 -62 -62 -37 -45 -55 -21 6 -19 11 -15 vhcurveto
          83 8 rmoveto
          -28 -19 21 26 27 18 20 28 28 19 -20 -27 -26 -19 -21 -27 hvcurveto
          -121 -432 rmoveto
          70 188 14 37 25 80 5 14 rlinecurve
          5 hlineto
          5 -14 25 -81 14 -36 70 -188 rcurveline
          endchar
        </CharString>
        <CharString name="Atilde">
          -81 callgsubr
          66 52 callsubr
          185 -4 callsubr
          hintmask 11110110
          185 752 rmoveto
          69 hlineto
          hintmask 11101110
          -63 callsubr
          hintmask 11110110
          -50 callgsubr
          hintmask 11101110
          -71 callgsubr
          hintmask 11110110
          -49 callgsubr
          hhcurveto
          hintmask 11101110
          -50 callsubr
          hintmask 11110110
          -49 callsubr
          -181 -752 -103 callgsubr
        </CharString>
        <CharString name="B">
          59 0 109 189 107 5 callgsubr
          0 callgsubr
          304 131 -112 131 hintmask 11110100
          71 hmoveto
          372 hlineto
          117 93 59 130 89 -55 62 -76 16 hvcurveto
          4 vlineto
          hintmask 11111000
          63 21 49 57 79 vvcurveto
          101 -81 68 -110 vhcurveto
          -372 hlineto
          128 -281 rmoveto
          172 218 vlineto
          52 34 -28 -59 -48 -34 -37 -60 hvcurveto
          -210 -296 rmoveto
          189 220 vlineto
          hintmask 11110100
          69 34 -37 -58 -65 -40 -29 -56 hvcurveto
          endchar
        </CharString>
        <CharString name="C">
          78 -79 callgsubr
          24 callgsubr
          hintmask 11101000
          376 -12 rmoveto
          173 130 84 179 hvcurveto
          -126 hlineto
          -100 -69 -55 -106 -139 -64 77 160 vhcurveto
          20 vlineto
          157 65 80 138 vhcurveto
          hintmask 11110000
          100 70 -55 -102 hvcurveto
          131 hlineto
          179 -132 86 -171 -210 -122 -114 -241 vhcurveto
          hintmask 11101000
          -247 122 -108 210 vhcurveto
          endchar
        </CharString>
        <CharString name="CR">
          -644 endchar
        </CharString>
        <CharString name="Cacute">
          78 61 callgsubr
          132 37 callsubr
          23 callgsubr
          -18 -880 -84 callsubr
        </CharString>
        <CharString name="Cacute.loclPLK">
          78 -12 108 494 108 38 131 37 callsubr
          313 736 -57 callsubr
          35 -879 -84 callsubr
        </CharString>
        <CharString name="Ccaron">
          78 108 callsubr
          37 callsubr
          307 733 -100 callgsubr
          175 -880 -84 callsubr
        </CharString>
        <CharString name="Ccedilla">
          78 52 callgsubr
          173 -106 106 -44 callgsubr
          57 callsubr
          231 95 47 131 -126 126 1 callgsubr
          hintmask 1001111010000000
          378 96 rmoveto
          -139 -64 77 160 hvcurveto
          20 vlineto
          157 65 80 138 vhcurveto
          hintmask 1001111100000000
          100 70 -55 -102 hvcurveto
          131 hlineto
          179 -132 86 -171 -210 -122 -114 -241 -229 105 -109 182 -15 vhcurveto
          hintmask 1010111100000000
          -10 -67 -25 callsubr
          -92 hlineto
          hintmask 0101111100000000
          -49 vlineto
          hintmask 1010111100000000
          -5 29 38 -3 33 hhcurveto
          10 callsubr
          hintmask 1001111010000000
          4 23 rlineto
          156 10 114 84 168 vvcurveto
          -126 hlineto
          -100 -69 -55 -106 vhcurveto
          endchar
        </CharString>
        <CharString name="Ccircumflex">
          78 108 callsubr
          37 callsubr
          201 -68 callgsubr
          69 -880 -84 callsubr
        </CharString>
        <CharString name="Cdotaccent">
          78 -79 callgsubr
          53 118 57 callsubr
          126 118 129 131 -126 126 hintmask 11111010
          301 751 -92 callgsubr
          75 -881 rmoveto
          173 130 84 179 hvcurveto
          -126 hlineto
          -100 -69 -55 -106 -139 -64 77 160 vhcurveto
          20 vlineto
          157 65 80 138 vhcurveto
          hintmask 11111100
          100 70 -55 -102 hvcurveto
          131 hlineto
          179 -132 86 -171 -210 -122 -114 -241 vhcurveto
          hintmask 11111010
          -247 122 -108 210 vhcurveto
          endchar
        </CharString>
        <CharString name="D">
          78 55 callsubr
          -51 callsubr
          348 131 vstem
          71 hmoveto
          -55 callgsubr
          endchar
        </CharString>
        <CharString name="Dcaron">
          78 55 callsubr
          47 96 callsubr
          348 131 vstem
          307 733 -100 callgsubr
          -130 -868 rmoveto
          -55 callgsubr
          endchar
        </CharString>
        <CharString name="Dcroat">
          -52 callgsubr
        </CharString>
        <CharString name="E">
          -74 callsubr
          -51 callsubr
          vstem
          71 hmoveto
          -98 callsubr
          endchar
        </CharString>
        <CharString name="Eacute">
          -74 callsubr
          50 132 -51 callsubr
          vstem
          286 -59 callsubr
          -296 -10 callsubr
        </CharString>
        <CharString name="Ebreve">
          -74 callsubr
          52 80 -51 callsubr
          vstem
          333 -63 callgsubr
          -262 -738 -87 callsubr
        </CharString>
        <CharString name="Ecaron">
          -74 callsubr
          47 96 callsubr
          vstem
          280 733 -100 callgsubr
          -103 -10 callsubr
        </CharString>
        <CharString name="Ecircumflex">
          -74 callsubr
          47 96 callsubr
          vstem
          174 733 -78 callgsubr
          endchar
        </CharString>
        <CharString name="Edieresis">
          -74 callsubr
          72 110 0 callgsubr
          -19 4 callsubr
          hintmask 00000000
          hintmask 11110110
          48 callgsubr
          hintmask 11111010
          -311 -10 callsubr
        </CharString>
        <CharString name="Edotaccent">
          -74 callsubr
          65 118 -51 callsubr
          75 118 vstem
          274 751 -92 callgsubr
          -203 -869 -87 callsubr
        </CharString>
        <CharString name="Egrave">
          -74 callsubr
          50 132 -51 callsubr
          vstem
          286 29 callsubr
          -107 -865 -87 callsubr
        </CharString>
        <CharString name="Emacron">
          -74 callsubr
          76 82 -51 callsubr
          vstem
          181 762 -43 callsubr
          -110 -844 -87 callsubr
        </CharString>
        <CharString name="Eng">
          103 callgsubr
          124 333 123 vstem
          523 -182 rmoveto
          99 29 68 66 hvcurveto
          734 -123 -406 vlineto
          -13 2 -35 -6 vvcurveto
          -5 -2 -3 3 -20 36 -11 16 rlinecurve
          -298 407 rlineto
          -122 -686 123 hlineto
          1 409 rlineto
          17 -2 33 -1 5 vhcurveto
          5 2 3 -3 15 -29 17 -22 rlinecurve
          296 -412 rlineto
          -40 vlineto
          -29 -15 -16 -30 vhcurveto
          -48 -82 hlineto
          -8 21 37 -7 30 hhcurveto
          endchar
        </CharString>
        <CharString name="Eogonek">
          23 -182 68 114 -71 callsubr
          -51 callsubr
          241 172 vstem
          543 112 callgsubr
          -26 vlineto
          -36 -14 20 21 30 38 33 38 10 hvcurveto
          109 -413 187 363 109 -363 172 407 109 -535 -686 439 vlineto
          -40 -23 -30 -29 -46 vvcurveto
          -64 58 -20 45 vhcurveto
          endchar
        </CharString>
        <CharString name="Eth">
          -52 callgsubr
        </CharString>
        <CharString name="Euro">
          -88 -12 98 147 75 70 75 147 98 hstem
          75 123 vstem
          415 -12 rmoveto
          37 36 5 10 34 hvcurveto
          97 vlineto
          -9 -27 -28 -5 -30 hhcurveto
          -103 -84 52 95 -34 hvcurveto
          234 75 -252 hlineto
          -1 11 0 12 0 12 0 12 0 12 11 flex1
          252 75 -234 hlineto
          95 34 84 52 103 hhcurveto
          30 28 -5 -9 27 hvcurveto
          97 vlineto
          9 -34 -36 6 -37 hhcurveto
          -167 -122 -93 -152 -39 hvcurveto
          -74 -75 62 hlineto
          -1 -12 0 -11 0 -12 0 -12 0 -12 -11 flex1
          -62 -75 74 hlineto
          -153 39 122 -92 167 hhcurveto
          endchar
        </CharString>
        <CharString name="F">
          -33 21 -21 282 109 186 109 -51 callsubr
          vstem
          71 hmoveto
          128 282 329 109 -329 186 365 109 -493 hlineto
          endchar
        </CharString>
        <CharString name="G">
          -36 callsubr
          9 callgsubr
          hintmask 10111010
          366 261 -80 callgsubr
          hintmask 10111100
          -88 callgsubr
          hintmask 01111010
          11 -76 rlineto
          91 367 -348 hlineto
          endchar
        </CharString>
        <CharString name="G_tilde.loclGUA">
          -36 callsubr
          54 81 -46 81 57 callsubr
          47 -4 callsubr
          27 132 -128 128 hintmask 1011011100100000
          323 787 rmoveto
          hintmask 1011101110100000
          -50 callgsubr
          hintmask 1011011110100000
          -71 callgsubr
          hintmask 1011101110100000
          -49 callgsubr
          hhcurveto
          hintmask 1011011100100000
          -50 callsubr
          hintmask 1011101100100000
          104 callgsubr
          hintmask 1011011100100000
          -63 callsubr
          43 -526 -80 callgsubr
          hintmask 1011011101000000
          -88 callgsubr
          hintmask 0111011100100000
          11 -76 rlineto
          91 367 -348 hlineto
          endchar
        </CharString>
        <CharString name="Gbreve">
          -36 callsubr
          40 80 9 callgsubr
          hintmask 10111101
          388 -63 callgsubr
          -22 -477 -86 callgsubr
        </CharString>
        <CharString name="Gcaron">
          -36 callsubr
          35 135 9 callgsubr
          hintmask 10111101
          443 733 rmoveto
          105 135 rlineto
          -103 hlineto
          -56 -72 -57 72 rlineto
          -103 hlineto
          106 -135 rlineto
          31 -472 -86 callgsubr
        </CharString>
        <CharString name="Gcircumflex">
          -36 callsubr
          35 135 9 callgsubr
          hintmask 10111101
          389 805 rmoveto
          -102 callsubr
          -106 -135 rlineto
          103 hlineto
          34 -472 -86 callgsubr
        </CharString>
        <CharString name="Gcommaaccent">
          134 -142 96 34 108 -75 -21 261 106 223 108 57 callsubr
          154 120 133 132 -128 128 hintmask 1101111010000000
          366 261 -80 callgsubr
          hintmask 1101111100000000
          -88 callgsubr
          hintmask 1011111010000000
          11 -76 rlineto
          91 367 -348 hlineto
          -37 -509 rmoveto
          48 hlineto
          -46 -88 rlineto
          62 hlineto
          56 98 rlineto
          86 -120 vlineto
          endchar
        </CharString>
        <CharString name="Gdotaccent">
          -36 callsubr
          53 118 57 callsubr
          154 118 135 132 -128 128 hintmask 1011111010000000
          447 869 rmoveto
          -118 -118 118 hlineto
          -81 -490 -80 callgsubr
          hintmask 1011111100000000
          -88 callgsubr
          hintmask 0111111010000000
          11 -76 rlineto
          91 367 -348 hlineto
          endchar
        </CharString>
        <CharString name="H">
          78 21 -21 296 110 280 -20 -7 callsubr
          71 hmoveto
          2 callgsubr
          endchar
        </CharString>
        <CharString name="Hbar">
          78 21 -21 296 110 108 84 -84 172 0 callgsubr
          324 128 hintmask 11011100
          71 hmoveto
          128 296 324 -296 128 514 63 hlineto
          hintmask 11101100
          84 -63 108 callgsubr
          -324 108 callgsubr
          -63 vlineto
          hintmask 11011100
          -84 63 vlineto
          128 -108 rmoveto
          108 324 -108 vlineto
          endchar
        </CharString>
        <CharString name="Hcircumflex">
          78 21 -21 296 110 280 -20 67 135 -7 callsubr
          201 -68 callgsubr
          -236 -868 rmoveto
          2 callgsubr
          endchar
        </CharString>
        <CharString name="I">
          12 callgsubr
          69 callsubr
          76 hmoveto
          -8 callsubr
          endchar
        </CharString>
        <CharString name="IJ">
          171 50 callsubr
          hstemhm
          76 127 101 62 callsubr
          hintmask 00000000
          hintmask 00111110
          76 hmoveto
          -8 callsubr
          hintmask 10011110
          451 -698 -62 callsubr
          hintmask 01011110
          37 -127 -36 vlineto
          hintmask 10011110
          25 callgsubr
        </CharString>
        <CharString name="Iacute">
          -366 21 callgsubr
          76 127 vstem
          91 -59 callsubr
          -96 -868 -41 callsubr
        </CharString>
        <CharString name="Iacute_J.loclNLD">
          171 50 callsubr
          70 132 hstemhm
          76 127 101 62 callsubr
          hintmask 10011111
          91 -59 callsubr
          464 -132 -94 callsubr
          hintmask 00111111
          -641 -868 rmoveto
          -8 callsubr
          hintmask 10011111
          451 -698 -62 callsubr
          hintmask 01011111
          37 -127 -36 vlineto
          hintmask 10011111
          25 callgsubr
        </CharString>
        <CharString name="Ibreve">
          12 callgsubr
          72 80 69 callsubr
          138 -63 callgsubr
          -62 -738 -41 callsubr
        </CharString>
        <CharString name="Icircumflex">
          12 callgsubr
          67 135 69 callsubr
          -21 -68 callgsubr
          -9 -868 -41 callsubr
        </CharString>
        <CharString name="Idieresis">
          12 callgsubr
          92 110 hstemhm
          -15 100 callgsubr
          -15 -61 callsubr
          hintmask 11101000
          -111 -868 -41 callsubr
        </CharString>
        <CharString name="Idotaccent">
          12 callgsubr
          85 118 69 callsubr
          79 751 -92 callgsubr
          -3 -869 -41 callsubr
        </CharString>
        <CharString name="Igrave">
          -366 21 callgsubr
          76 127 vstem
          91 29 callsubr
          93 -865 -41 callsubr
        </CharString>
        <CharString name="Imacron">
          12 callgsubr
          96 82 69 callsubr
          -14 762 -43 callsubr
          90 -844 -41 callsubr
        </CharString>
        <CharString name="Iogonek">
          -366 -190 68 -54 54 -33 -21 197 -7 callgsubr
          hstemhm
          76 127 hintmask 00000000
          hintmask 01011100
          183 -122 rmoveto
          -36 -14 25 27 28 21 28 13 14 hvcurveto
          36 686 -127 -686 11 hlineto
          hintmask 10011100
          -26 -25 -23 -29 -47 vvcurveto
          -68 55 -21 49 vhcurveto
          hintmask 00111100
          23 21 5 9 24 hvcurveto
          hintmask 01011100
          54 vlineto
          endchar
        </CharString>
        <CharString name="Itilde">
          12 callgsubr
          86 52 callsubr
          -28 69 35 127 34 68 hintmask 11101100
          -28 752 rmoveto
          69 hlineto
          hintmask 11011100
          -63 callsubr
          hintmask 11101110
          -50 callgsubr
          hintmask 11011110
          -71 callgsubr
          hintmask 11101110
          -49 callgsubr
          hhcurveto
          hintmask 11011100
          -50 callsubr
          hintmask 11101100
          -49 callsubr
          104 -752 -41 callsubr
        </CharString>
        <CharString name="J">
          -107 -29 callsubr
          hstem
          26 62 callsubr
          vstem
          249 -12 15 callsubr
        </CharString>
        <CharString name="Jcircumflex">
          -107 -29 callsubr
          67 135 hstem
          26 62 callsubr
          vstem
          246 -68 callgsubr
          -103 -880 15 callsubr
        </CharString>
        <CharString name="K">
          59 21 -21 686 90 callsubr
          6 callsubr
          endchar
        </CharString>
        <CharString name="Kcommaaccent">
          59 91 callgsubr
          686 90 callsubr
          93 120 6 callsubr
          223 -916 rmoveto
          -65 callgsubr
        </CharString>
        <CharString name="L">
          0 111 575 90 callsubr
          vstem
          71 hmoveto
          -1 callgsubr
          endchar
        </CharString>
        <CharString name="Lacute">
          0 111 575 -20 70 132 -51 callsubr
          vstem
          87 -59 callsubr
          -97 -868 rmoveto
          -1 callgsubr
          endchar
        </CharString>
        <CharString name="Lcaron">
          0 111 460 115 -51 callsubr
          143 120 vstem
          71 hmoveto
          -1 callgsubr
          271 -227 rmoveto
          62 hlineto
          58 123 rlineto
          43 callsubr
          endchar
        </CharString>
        <CharString name="Lcommaaccent">
          -142 96 46 111 575 90 callsubr
          58 120 vstem
          71 hmoveto
          -1 callgsubr
          188 -916 rmoveto
          -65 callgsubr
        </CharString>
        <CharString name="Ldot">
          0 111 288 127 160 90 callsubr
          147 125 vstem
          71 hmoveto
          -1 callgsubr
          275 -287 -5 callgsubr
          endchar
        </CharString>
        <CharString name="Lslash">
          0 111 420 -20 175 90 callsubr
          vstem
          71 hmoveto
          492 111 -364 226 hlineto
          150 99 rlineto
          95 vlineto
          -150 -99 rlineto
          254 -128 -339 vlineto
          -69 -45 rlineto
          -95 vlineto
          69 46 rlineto
          endchar
        </CharString>
        <CharString name="M">
          189 0 140 -119 -21 559 127 hstemhm
          71 122 441 128 hintmask 01111000
          71 hmoveto
          122 443 hlineto
          27 -4 89 0 vhcurveto
          5 hlineto
          5 -18 7 -33 8 -25 140 -483 rcurveline
          118 hlineto
          141 483 8 27 8 31 4 18 rlinecurve
          6 hlineto
          0 -5 -90 -26 vvcurveto
          -443 128 686 -190 vlineto
          -120 -409 rlineto
          hintmask 10111000
          -11 -38 -17 -99 0 vvcurveto
          -5 hlineto
          0 -19 93 -13 44 vhcurveto
          -119 409 rlineto
          -197 hlineto
          endchar
        </CharString>
        <CharString name="N">
          77 callsubr
          hstem
          46 callgsubr
          vstem
          -19 callgsubr
          endchar
        </CharString>
        <CharString name="NULL">
          -644 endchar
        </CharString>
        <CharString name="Nacute">
          78 21 callgsubr
          46 callgsubr
          vstem
          23 callgsubr
          -323 -868 rmoveto
          -97 callsubr
          endchar
        </CharString>
        <CharString name="Nacute.loclPLK">
          77 callsubr
          70 131 hstem
          46 callgsubr
          vstem
          313 736 -57 callsubr
          -270 -867 rmoveto
          -97 callsubr
          endchar
        </CharString>
        <CharString name="Ncaron">
          77 callsubr
          67 135 hstem
          46 callgsubr
          vstem
          307 733 -100 callgsubr
          -130 -868 rmoveto
          -97 callsubr
          endchar
        </CharString>
        <CharString name="Ncommaaccent">
          78 91 callgsubr
          686 -20 hstem
          71 123 107 120 107 123 vstem
          -19 callgsubr
          232 -916 rmoveto
          -65 callgsubr
        </CharString>
        <CharString name="Ntilde">
          77 callsubr
          86 52 callsubr
          71 123 0 -4 callsubr
          1 123 -21 callgsubr
          -123 -752 rmoveto
          -97 callsubr
          endchar
        </CharString>
        <CharString name="O">
          -80 callsubr
          -30 callgsubr
          389 -12 -107 callgsubr
          endchar
        </CharString>
        <CharString name="OE">
          356 -12 108 -96 108 189 108 173 108 -96 108 57 callsubr
          321 128 hintmask 00000000
          hintmask 10110110
          316 -12 rmoveto
          72 60 24 49 48 hvcurveto
          hintmask 01110110
          -61 449 108 -321 189 267 108 -267 173 315 108 -443 vlineto
          hintmask 01101110
          -62 vlineto
          50 -46 -59 24 -75 hhcurveto
          -170 -102 -121 -234 hvcurveto
          hintmask 10110110
          -234 102 -121 170 vhcurveto
          24 108 rmoveto
          -113 -52 75 172 hvcurveto
          hintmask 01101110
          172 52 75 113 96 60 -66 -181 vhcurveto
          hintmask 10110110
          -181 -60 -66 -96 vhcurveto
          endchar
        </CharString>
        <CharString name="Oacute">
          -80 callsubr
          38 132 -30 callgsubr
          341 -59 callsubr
          -33 -880 -107 callgsubr
          endchar
        </CharString>
        <CharString name="Oacute.loclPLK">
          134 111 callgsubr
          -30 callgsubr
          341 736 -57 callsubr
          20 -879 -107 callgsubr
          endchar
        </CharString>
        <CharString name="Obreve">
          -80 callsubr
          40 80 -30 callgsubr
          388 -63 callgsubr
          1 -750 -107 callgsubr
          endchar
        </CharString>
        <CharString name="Ocircumflex">
          134 108 callsubr
          -30 callgsubr
          229 -68 callgsubr
          54 -880 -107 callgsubr
          endchar
        </CharString>
        <CharString name="Odieresis">
          -80 callsubr
          60 110 hstem
          1 callsubr
          60 4 callsubr
          59 131 vstem
          235 -61 callsubr
          -48 -880 -107 callgsubr
          endchar
        </CharString>
        <CharString name="Ograve">
          -80 callsubr
          38 132 -30 callgsubr
          341 29 callsubr
          156 -877 -107 callgsubr
          endchar
        </CharString>
        <CharString name="Ohorn">
          -80 callsubr
          3 127 59 callsubr
          -90 145 hintmask 00000000
          hintmask 10110100
          645 828 -34 callsubr
          hintmask 11010100
          -70 callsubr
          hintmask 11011000
          -26 callsubr
          hintmask 10110100
          28 callsubr
          hintmask 11011000
          -73 callsubr
          endchar
        </CharString>
        <CharString name="Ohungarumlaut">
          -80 callsubr
          38 132 -30 callgsubr
          260 736 -57 callgsubr
          -107 -880 -107 callgsubr
          endchar
        </CharString>
        <CharString name="Omacron">
          -80 callsubr
          64 82 -30 callgsubr
          236 762 -43 callsubr
          153 -856 -107 callgsubr
          endchar
        </CharString>
        <CharString name="Oslash">
          -80 callsubr
          37 -20 -30 callgsubr
          47 -49 29 callgsubr
          -47 callgsubr
        </CharString>
        <CharString name="Oslashacute">
          -80 callsubr
          37 -20 21 40 callsubr
          hintmask 00000000
          hintmask 11011100
          341 -59 callsubr
          -375 -917 29 callgsubr
          hintmask 11101100
          -47 callgsubr
        </CharString>
        <CharString name="Otilde">
          -80 callsubr
          54 81 -46 81 57 callsubr
          47 -4 callsubr
          49 131 hintmask 11101101
          222 752 rmoveto
          69 hlineto
          hintmask 11011101
          -63 callsubr
          hintmask 11101111
          -50 callgsubr
          hintmask 11011111
          -71 callgsubr
          hintmask 11101111
          -49 callgsubr
          hhcurveto
          hintmask 11011101
          -50 callsubr
          hintmask 11101101
          -49 callsubr
          167 -764 -107 callgsubr
          endchar
        </CharString>
        <CharString name="P">
          23 21 -21 245 109 223 109 -51 callsubr
          297 129 vstem
          71 hmoveto
          128 245 195 hlineto
          152 79 87 135 134 -74 85 -150 hvcurveto
          -330 hlineto
          128 -332 66 callsubr
        </CharString>
        <CharString name="Q">
          -80 callsubr
          -30 callgsubr
          538 -130 rmoveto
          171 hlineto
          -153 148 rlineto
          114 48 65 107 170 vvcurveto
          241 -131 114 -215 -215 -130 -114 -241 -241 130 -114 215 11 12 0 1 11 vhcurveto
          -34 107 rmoveto
          -139 -75 79 157 hvcurveto
          21 vlineto
          157 76 80 138 139 76 -80 -157 vhcurveto
          103 callsubr
        </CharString>
        <CharString name="R">
          18 callgsubr
          -51 callsubr
          329 -23 callsubr
          endchar
        </CharString>
        <CharString name="Racute">
          18 callgsubr
          50 132 -51 callsubr
          329 129 vstem
          23 callgsubr
          -323 -868 rmoveto
          -95 callsubr
          endchar
        </CharString>
        <CharString name="Rcaron">
          18 callgsubr
          47 96 callsubr
          329 129 vstem
          307 733 -100 callgsubr
          -130 -868 rmoveto
          -95 callsubr
          endchar
        </CharString>
        <CharString name="Rcommaaccent">
          78 -142 96 67 51 callsubr
          -51 callsubr
          102 120 107 -23 callsubr
          -120 -603 rmoveto
          -65 callgsubr
        </CharString>
        <CharString name="S">
          23 -12 108 494 108 2 callsubr
          hintmask 00000000
          hintmask 11100100
          331 -12 rmoveto
          168 122 59 154 hvcurveto
          hintmask 11010100
          246 -431 -69 136 vvcurveto
          49 55 27 90 vhcurveto
          hintmask 11011000
          -75 callgsubr
          hintmask 11010100
          -253 431 82 -155 vvcurveto
          -52 -47 -35 -111 vhcurveto
          hintmask 11100100
          -100 -61 39 67 hvcurveto
          1 18 rlineto
          -129 hlineto
          -4 -1 -10 -7 vvcurveto
          -145 134 -66 153 vhcurveto
          endchar
        </CharString>
        <CharString name="Sacute">
          23 61 callgsubr
          132 19 callgsubr
          286 -59 callsubr
          hintmask 11110010
          -36 -880 -93 callsubr
        </CharString>
        <CharString name="Sacute.loclPLK">
          23 -12 108 494 108 38 131 19 callgsubr
          286 736 -57 callsubr
          hintmask 11110010
          17 -879 -93 callsubr
        </CharString>
        <CharString name="Scaron">
          23 108 callsubr
          19 callgsubr
          280 733 -100 callgsubr
          hintmask 11110010
          157 -880 -93 callsubr
        </CharString>
        <CharString name="Scedilla">
          23 52 callgsubr
          43 24 106 94 callgsubr
          181 95 11 126 -111 129 hintmask 1001101001000000
          336 -182 rmoveto
          hintmask 1011101101000000
          10 callsubr
          hintmask 1001101101000000
          4 24 rlineto
          hintmask 1001101001000000
          145 9 102 61 141 246 -431 -69 136 vvcurveto
          49 55 27 90 vhcurveto
          hintmask 1001101010000000
          -75 callgsubr
          hintmask 1001101001000000
          -253 431 82 -155 vvcurveto
          -52 -47 -35 -111 vhcurveto
          hintmask 1001110001000000
          -100 -61 39 67 hvcurveto
          1 18 rlineto
          -129 hlineto
          -4 -1 -10 -7 vvcurveto
          -134 114 -67 139 -8 vhcurveto
          hintmask 1011101101000000
          -11 -67 -25 callsubr
          -93 hlineto
          hintmask 0101101001000000
          -49 vlineto
          hintmask 1001101001000000
          -5 29 39 -3 33 hhcurveto
          endchar
        </CharString>
        <CharString name="Scircumflex">
          23 108 callsubr
          19 callgsubr
          14 callsubr
          hintmask 11110010
          51 -880 -93 callsubr
        </CharString>
        <CharString name="Scommaaccent">
          23 -142 96 34 108 94 callgsubr
          84 120 83 -59 callgsubr
          -55 -218 rmoveto
          hintmask 11101101
          -65 callgsubr
        </CharString>
        <CharString name="T">
          -33 21 -16 callgsubr
          endchar
        </CharString>
        <CharString name="Tbar">
          -33 21 -21 362 84 130 110 97 callgsubr
          242 hmoveto
          127 362 95 84 -95 130 221 110 -569 -110 221 -130 -95 -84 95 hlineto
          endchar
        </CharString>
        <CharString name="Tcaron">
          -33 21 -21 576 110 47 135 97 callgsubr
          252 733 -100 callgsubr
          96 -868 rmoveto
          30 callsubr
          endchar
        </CharString>
        <CharString name="Thorn">
          23 21 -21 134 109 223 109 111 90 callsubr
          297 129 vstem
          71 hmoveto
          128 134 195 hlineto
          152 79 87 135 133 -74 86 -150 hvcurveto
          -202 111 -128 hlineto
          128 -443 66 callsubr
        </CharString>
        <CharString name="U">
          -42 callgsubr
          -7 callsubr
          360 -12 rmoveto
          -103 callsubr
          endchar
        </CharString>
        <CharString name="Uacute">
          -9 callgsubr
          23 callgsubr
          -34 -880 rmoveto
          -103 callsubr
          endchar
        </CharString>
        <CharString name="Ubreve">
          -42 callgsubr
          72 80 -7 callsubr
          360 -63 callgsubr
          -750 vmoveto
          -103 callsubr
          endchar
        </CharString>
        <CharString name="Ucircumflex">
          -42 callgsubr
          67 135 -7 callsubr
          201 -68 callgsubr
          53 -880 rmoveto
          -103 callsubr
          endchar
        </CharString>
        <CharString name="Udieresis">
          -42 callgsubr
          92 110 8 callgsubr
          hintmask 00000000
          hintmask 11111100
          207 -61 callsubr
          hintmask 11110010
          -49 -880 rmoveto
          -103 callsubr
          endchar
        </CharString>
        <CharString name="Ugrave">
          -9 callgsubr
          313 29 callsubr
          155 -877 rmoveto
          -103 callsubr
          endchar
        </CharString>
        <CharString name="Uhorn">
          -54 callgsubr
          endchar
        </CharString>
        <CharString name="Uhungarumlaut">
          -9 callgsubr
          232 736 -57 callgsubr
          -108 -880 rmoveto
          -103 callsubr
          endchar
        </CharString>
        <CharString name="Umacron">
          -42 callgsubr
          96 82 -7 callsubr
          208 762 -43 callsubr
          152 -856 rmoveto
          -103 callsubr
          endchar
        </CharString>
        <CharString name="Uogonek">
          78 -182 68 102 108 590 90 callsubr
          131 96 97 128 vstem
          435 93 callsubr
          -37 -13 25 27 22 12 22 12 15 hvcurveto
          127 25 74 84 148 vvcurveto
          -10 callgsubr
          -429 vlineto
          -106 -61 -55 -102 -102 -59 55 106 vhcurveto
          429 -128 -432 vlineto
          -179 108 -87 180 vhcurveto
          -16 -21 -13 -25 -35 vvcurveto
          -68 55 -21 50 vhcurveto
          endchar
        </CharString>
        <CharString name="Uring">
          -42 callgsubr
          38 53 93 53 0 callgsubr
          63 53 92 53 63 128 hintmask 00000000
          hintmask 11111111
          361 704 -70 callgsubr
          -1 -769 rmoveto
          182 109 87 179 hvcurveto
          hintmask 11011111
          -10 callgsubr
          -429 vlineto
          -106 -61 -55 -102 -102 -59 55 106 vhcurveto
          429 -128 -432 vlineto
          hintmask 11111111
          -179 109 -87 180 vhcurveto
          endchar
        </CharString>
        <CharString name="Utilde">
          -42 callgsubr
          86 81 -46 81 0 callgsubr
          -5 -4 callsubr
          -4 128 -21 callgsubr
          166 -764 rmoveto
          -103 callsubr
          endchar
        </CharString>
        <CharString name="V">
          23 0 143 -122 -7 callgsubr
          hstemhm
          8 650 hintmask 01110000
          259 hmoveto
          149 hlineto
          250 686 rlineto
          -132 hlineto
          -146 -418 rlineto
          hintmask 10110000
          -12 -33 -25 -82 -3 -10 rrcurveto
          -5 hlineto
          -4 10 -26 81 -12 33 -147 419 rcurveline
          -138 hlineto
          endchar
        </CharString>
        <CharString name="W">
          17 callgsubr
          hstemhm
          5 934 hintmask 10110000
          193 hmoveto
          42 callsubr
          hintmask 11010000
          -95 callgsubr
        </CharString>
        <CharString name="Wacute">
          17 callgsubr
          70 132 hstemhm
          5 934 hintmask 10111000
          424 -59 callsubr
          -312 -868 rmoveto
          42 callsubr
          hintmask 11011000
          -95 callgsubr
        </CharString>
        <CharString name="Wcircumflex">
          17 callgsubr
          67 135 hstemhm
          5 934 hintmask 10111000
          312 -68 callgsubr
          -225 -868 rmoveto
          42 callsubr
          hintmask 11011000
          -95 callgsubr
        </CharString>
        <CharString name="Wdieresis">
          17 callgsubr
          92 110 hstemhm
          318 4 callsubr
          hintmask 10111100
          318 -61 callsubr
          -327 -868 rmoveto
          42 callsubr
          hintmask 11011100
          -95 callgsubr
        </CharString>
        <CharString name="Wgrave">
          17 callgsubr
          70 132 hstemhm
          5 934 hintmask 10111000
          424 29 callsubr
          -123 -865 rmoveto
          42 callsubr
          hintmask 11011000
          -95 callgsubr
        </CharString>
        <CharString name="X">
          62 callgsubr
          hstem
          2 663 vstem
          2 hmoveto
          147 hlineto
          176 266 rlineto
          6 hlineto
          179 -266 rlineto
          155 hlineto
          -250 361 226 325 rlineto
          -147 hlineto
          -154 -230 rlineto
          -6 hlineto
          -154 230 rlineto
          -156 hlineto
          226 -326 rlineto
          endchar
        </CharString>
        <CharString name="Y">
          62 callgsubr
          hstem
          271 127 vstem
          271 hmoveto
          -89 callsubr
          endchar
        </CharString>
        <CharString name="Y.loclGUA">
          -14 callsubr
          hstem
          71 128 269 128 vstem
          324 -12 -99 callgsubr
        </CharString>
        <CharString name="Yacute">
          23 21 callgsubr
          271 127 vstem
          286 -59 callsubr
          -96 -868 rmoveto
          -89 callsubr
          endchar
        </CharString>
        <CharString name="Yacute.loclGUA">
          -14 callsubr
          70 132 -51 callsubr
          269 128 vstem
          286 -59 callsubr
          -43 -880 -99 callgsubr
        </CharString>
        <CharString name="Ycircumflex">
          62 callgsubr
          67 135 hstem
          271 127 vstem
          14 callsubr
          -9 -868 rmoveto
          -89 callsubr
          endchar
        </CharString>
        <CharString name="Ycircumflex.loclGUA">
          -14 callsubr
          67 96 callsubr
          269 128 vstem
          14 callsubr
          44 -880 -99 callgsubr
        </CharString>
        <CharString name="Ydieresis">
          62 callgsubr
          92 110 hstemhm
          180 100 callgsubr
          48 callgsubr
          hintmask 11101000
          -111 -868 rmoveto
          -89 callsubr
          endchar
        </CharString>
        <CharString name="Ydieresis.loclGUA">
          -14 callsubr
          92 110 0 callgsubr
          -19 4 callsubr
          -22 128 hintmask 00000000
          hintmask 11110110
          48 callgsubr
          hintmask 11111001
          -58 -880 -99 callgsubr
        </CharString>
        <CharString name="Ygrave">
          23 21 callgsubr
          271 127 vstem
          286 29 callsubr
          93 -865 rmoveto
          -89 callsubr
          endchar
        </CharString>
        <CharString name="Ygrave.loclGUA">
          -14 callsubr
          70 132 -51 callsubr
          269 128 vstem
          286 29 callsubr
          146 -877 -99 callgsubr
        </CharString>
        <CharString name="Z">
          42 callgsubr
          hstem
          19 568 vstem
          19 hmoveto
          -75 callsubr
          endchar
        </CharString>
        <CharString name="Zacute">
          42 callgsubr
          50 132 hstem
          19 568 vstem
          258 -59 callsubr
          -320 -868 rmoveto
          -75 callsubr
          endchar
        </CharString>
        <CharString name="Zacute.loclPLK">
          42 callgsubr
          50 131 hstem
          19 568 vstem
          258 736 -57 callsubr
          -267 -867 rmoveto
          -75 callsubr
          endchar
        </CharString>
        <CharString name="Zcaron">
          42 callgsubr
          47 135 hstem
          19 568 vstem
          252 733 -100 callgsubr
          -127 -868 rmoveto
          -75 callsubr
          endchar
        </CharString>
        <CharString name="Zdotaccent">
          42 callgsubr
          65 118 hstem
          246 118 vstem
          246 751 -92 callgsubr
          -227 -869 rmoveto
          -75 callsubr
          endchar
        </CharString>
        <CharString name="a">
          -56 callgsubr
          -60 callgsubr
          hintmask 10111010
          198 -12 -77 callsubr
          hintmask 01110110
          -107 callsubr
          hintmask 10111010
          -105 callsubr
          endchar
        </CharString>
        <CharString name="aacute">
          -9 callsubr
          230 -64 callsubr
          -113 -2 callsubr
          hintmask 01111011
          -107 callsubr
          hintmask 10111101
          -105 callsubr
          endchar
        </CharString>
        <CharString name="abreve">
          -88 -12 -25 callgsubr
          -60 callgsubr
          hintmask 1011011010000000
          277 593 -72 callsubr
          hintmask 1011101010000000
          -51 callgsubr
          hintmask 1011011010000000
          -6 callgsubr
          hintmask 0111010110000000
          -107 callsubr
          hintmask 1011011010000000
          -105 callsubr
          endchar
        </CharString>
        <CharString name="acircumflex">
          -56 callgsubr
          50 135 -63 63 -60 callgsubr
          hintmask 1011101010000000
          105 callsubr
          hintmask 1011011010000000
          57 72 rlineto
          hintmask 1011101010000000
          -52 callsubr
          hintmask 0111100110000000
          -107 callsubr
          hintmask 1011101010000000
          -105 callsubr
          endchar
        </CharString>
        <CharString name="acute">
          -311 591 132 hstem
          75 203 vstem
          75 -64 callsubr
          endchar
        </CharString>
        <CharString name="acute.loclPLK">
          -311 591 131 hstem
          95 143 vstem
          95 591 -57 callsubr
          endchar
        </CharString>
        <CharString name="adieresis">
          -56 callgsubr
          75 110 -60 callsubr
          -50 4 callsubr
          -73 120 hintmask 1011100101000000
          124 613 rmoveto
          107 110 -107 hlineto
          hintmask 1011110010000000
          202 -110 rmoveto
          108 110 -108 hlineto
          -128 -2 callsubr
          hintmask 0111101001000000
          -107 callsubr
          hintmask 1011110001000000
          -193 -137 -40 -143 hvcurveto
          hintmask 1011110010000000
          -128 107 -20 60 vhcurveto
          hintmask 1011110001000000
          36 96 rmoveto
          -53 -27 22 42 70 93 16 114 hvcurveto
          -24 vlineto
          -76 -47 -50 -80 vhcurveto
          endchar
        </CharString>
        <CharString name="ae">
          245 -46 callsubr
          -60 callsubr
          203 122 229 125 hintmask 11110110
          228 -12 -11 callgsubr
          hintmask 11101110
          35 callgsubr
          hintmask 11110110
          -11 callsubr
        </CharString>
        <CharString name="aeacute">
          245 -46 callsubr
          53 132 -60 callsubr
          203 122 229 125 hintmask 11111011
          397 -64 callsubr
          -250 -735 -11 callgsubr
          hintmask 11110111
          35 callgsubr
          hintmask 11111011
          -11 callsubr
        </CharString>
        <CharString name="agrave">
          -9 callsubr
          230 13 callgsubr
          76 -732 -77 callsubr
          hintmask 01111011
          -107 callsubr
          hintmask 10111101
          -105 callsubr
          endchar
        </CharString>
        <CharString name="amacron">
          -56 callgsubr
          79 82 85 callsubr
          125 617 -43 callsubr
          73 -711 -77 callsubr
          hintmask 01111011
          -107 callsubr
          hintmask 10111101
          -105 callsubr
          endchar
        </CharString>
        <CharString name="ampersand">
          59 -12 99 212 98 202 99 hstemhm
          43 124 -108 122 284 120 hintmask 11110100
          315 -12 rmoveto
          176 94 84 129 hvcurveto
          98 91 98 -211 -199 vlineto
          -72 -48 -39 -98 -95 -57 33 75 84 66 20 71 vhcurveto
          64 98 -66 hlineto
          hintmask 11101100
          -64 -57 35 65 68 54 34 89 89 52 -31 -67 hvcurveto
          -16 120 25 vlineto
          114 -106 74 -153 -160 -107 -66 -122 -84 50 -41 68 -29 vhcurveto
          -4 vlineto
          hintmask 11110100
          -77 -22 -57 -52 -94 vvcurveto
          -122 113 -74 159 vhcurveto
          endchar
        </CharString>
        <CharString name="ampersand.alt">
          59 -14 97 -83 128 -107 -21 603 95 hstemhm
          55 121 -30 114 142 112 11 111 hintmask 00000000
          hintmask 00111011
          688 hmoveto
          hintmask 01011011
          -117 128 39 58 24 74 2 91 rlinecurve
          -111 hlineto
          -1 -55 -11 -47 -18 -38 -126 137 rcurveline
          hintmask 00110110
          87 41 58 72 81 vvcurveto
          102 -83 54 -93 -102 -90 -65 -119 -50 17 -43 32 -40 vhcurveto
          hintmask 10011010
          -76 -36 -64 -66 -94 vvcurveto
          -128 107 -71 134 71 70 21 42 57 vhcurveto
          hintmask 00111011
          45 -49 rlineto
          hintmask 10010110
          -206 603 rmoveto
          36 33 -25 -49 -49 -34 -38 -62 -26 hvcurveto
          -26 26 -20 35 44 vvcurveto
          54 34 28 39 vhcurveto
          -26 -520 rmoveto
          hintmask 10011010
          -72 -59 41 67 59 30 38 52 22 hvcurveto
          169 -186 rlineto
          hintmask 10010110
          -27 -35 -42 -14 -43 hhcurveto
          endchar
        </CharString>
        <CharString name="aogonek">
          -88 -182 68 102 96 -67 -21 238 -37 callsubr
          -60 callgsubr
          -105 172 1 callgsubr
          hintmask 1101110010000000
          477 -182 rmoveto
          31 31 11 3 9 hvcurveto
          54 -27 vlineto
          -38 -12 21 23 41 47 21 30 12 hvcurveto
          82 vlineto
          hintmask 1101101100000000
          -32 hlineto
          -18 -17 10 25 hvcurveto
          251 vlineto
          105 -68 61 -142 -128 -86 -55 -91 -9 0 -7 1 -6 vhcurveto
          116 14 hlineto
          28 20 31 77 74 16 -35 -45 vhcurveto
          -44 vlineto
          hintmask 1101110010000000
          -193 -137 -40 -143 -128 107 -20 60 82 51 29 43 35 hvcurveto
          7 hlineto
          hintmask 1011110010000000
          8 -31 21 -23 31 -10 rrcurveto
          -32 -23 -25 -29 -44 vvcurveto
          hintmask 1101110010000000
          -62 50 -20 51 vhcurveto
          hintmask 1101110100000000
          -243 266 rmoveto
          -53 -27 22 42 70 93 16 114 hvcurveto
          -24 vlineto
          -76 -47 -50 -80 vhcurveto
          endchar
        </CharString>
        <CharString name="approxequal">
          -95 59 110 -50 110 42 110 -50 111 hstemhm
          31 486 hintmask 00000000
          hintmask 01011000
          31 259 rmoveto
          0 58 72 83 vhcurveto
          hintmask 01101000
          112 callsubr
          111 vlineto
          0 -58 -73 -83 vhcurveto
          hintmask 01011000
          -75 -56 61 -73 hhcurveto
          -94 -47 -73 0 hvcurveto
          -322 vmoveto
          0 58 72 83 vhcurveto
          hintmask 10101000
          112 callsubr
          110 vlineto
          0 -58 -72 -83 vhcurveto
          hintmask 01101000
          -75 -56 60 -73 hhcurveto
          -94 -47 -72 0 hvcurveto
          endchar
        </CharString>
        <CharString name="aring">
          -56 callgsubr
          21 53 93 53 -60 callsubr
          5 53 92 53 -16 120 1 callgsubr
          hintmask 1011110011000000
          278 559 -70 callgsubr
          hintmask 1011011010100000
          -80 -624 -77 callsubr
          hintmask 0111010100100000
          -107 callsubr
          hintmask 1011011010100000
          -105 callsubr
          endchar
        </CharString>
        <CharString name="aringacute">
          -56 callgsubr
          21 53 93 53 21 132 -60 callsubr
          5 53 92 53 -16 120 1 callgsubr
          hintmask 1011111001100000
          230 779 -94 callsubr
          -33 -352 rmoveto
          62 37 45 55 hvcurveto
          hintmask 1011010001100000
          55 -37 44 -62 -62 -37 -44 -55 vhcurveto
          hintmask 1011111001100000
          -55 37 -45 62 vhcurveto
          53 vmoveto
          -28 -18 21 26 hvcurveto
          hintmask 1011010001100000
          26 18 20 28 27 19 -20 -26 vhcurveto
          hintmask 1011111001100000
          -26 -19 -21 -27 vhcurveto
          hintmask 1011010101010000
          -80 -624 -77 callsubr
          hintmask 0111010010010000
          -107 callsubr
          hintmask 1011010101010000
          -105 callsubr
          endchar
        </CharString>
        <CharString name="arrowboth">
          356 204 97 101 callsubr
          -53 132 rlineto
          534 hlineto
          -55 -132 rlineto
          49 hlineto
          197 170 rlineto
          21 vlineto
          -197 170 rlineto
          -49 hlineto
          55 -132 rlineto
          -534 hlineto
          53 132 95 callgsubr
        </CharString>
        <CharString name="arrowdown">
          105 callgsubr
          204 95 vstem
          241 -207 83 callsubr
          728 -95 -728 vlineto
          -133 55 rlineto
          -48 vlineto
          endchar
        </CharString>
        <CharString name="arrowleft">
          356 204 96 101 callsubr
          -55 132 rlineto
          727 96 -727 hlineto
          55 133 95 callgsubr
        </CharString>
        <CharString name="arrowright">
          356 204 96 hstem
          42 918 vstem
          714 72 rmoveto
          49 hlineto
          197 169 rlineto
          21 vlineto
          -197 171 rlineto
          -49 hlineto
          55 -133 rlineto
          -727 -96 727 hlineto
          endchar
        </CharString>
        <CharString name="arrowup">
          105 callgsubr
          203 96 vstem
          203 -207 rmoveto
          96 727 hlineto
          132 -55 rlineto
          49 vlineto
          -169 38 callgsubr
          55 rlineto
          endchar
        </CharString>
        <CharString name="arrowupdn">
          105 callgsubr
          201 96 vstem
          239 -207 rmoveto
          21 hlineto
          170 197 rlineto
          49 vlineto
          -133 -55 rlineto
          534 vlineto
          133 -53 rlineto
          49 vlineto
          -170 38 callgsubr
          53 rlineto
          -534 vlineto
          -132 55 rlineto
          -49 vlineto
          endchar
        </CharString>
        <CharString name="arrowupdnbse">
          -144 -233 73 hstem
          201 96 vstem
          239 -112 83 callsubr
          440 vlineto
          133 -53 rlineto
          49 vlineto
          -170 38 callgsubr
          53 rlineto
          -440 vlineto
          -132 55 rlineto
          -48 vlineto
          -318 vmoveto
          361 73 -361 hlineto
          endchar
        </CharString>
        <CharString name="asciicircum">
          -175 580 106 0 -20 hstemhm
          25 420 hintmask 01100000
          25 294 -12 callgsubr
          hintmask 10100000
          106 286 108 -286 rlineto
          103 hlineto
          -157 392 rlineto
          -107 hlineto
          endchar
        </CharString>
        <CharString name="asciitilde">
          -60 215 110 -49 109 hstemhm
          41 502 hintmask 01100000
          41 203 rmoveto
          0 60 73 85 vhcurveto
          hintmask 10100000
          78 58 -61 76 hhcurveto
          97 48 73 0 hvcurveto
          109 vlineto
          0 -60 -72 -85 vhcurveto
          hintmask 01100000
          -78 -58 60 -76 hhcurveto
          -97 -48 -72 0 hvcurveto
          endchar
        </CharString>
        <CharString name="asterisk">
          -255 686 -20 hstem
          31 323 vstem
          151 362 rmoveto
          83 hlineto
          -17 119 96 -74 41 71 -112 46 112 47 -41 70 -96 -73 17 118 rlineto
          -83 hlineto
          17 -119 -96 74 -41 -70 112 -47 -112 -46 41 -71 96 74 rlineto
          endchar
        </CharString>
        <CharString name="at">
          345 -153 71 103 87 -86 83 139 78 113 86 106 71 hstemhm
          45 81 171 111 -88 107 164 110 171 80 hintmask 1011111101100000
          474 -153 rmoveto
          50 91 11 16 49 hvcurveto
          76 vlineto
          -18 -42 -95 -14 -53 hhcurveto
          -238 -110 115 228 247 148 119 238 212 148 -89 -216 -167 -69 -50 -59 -26 -17 9 31 hvcurveto
          227 vlineto
          94 -61 55 -128 vhcurveto
          hintmask 1011111011100000
          -115 -77 -50 -83 -8 0 -6 1 -6 hvcurveto
          106 13 hlineto
          25 18 29 67 66 13 -31 -41 vhcurveto
          -41 vlineto
          hintmask 1101111101100000
          -172 -122 -36 -131 -116 96 -18 53 73 46 25 38 31 hvcurveto
          6 hlineto
          hintmask 1011111101100000
          -13 4 26 -49 87 hhcurveto
          97 136 72 227 268 -187 109 -252 -252 -216 -117 -319 -289 165 -126 264 hvcurveto
          hintmask 1101111101100000
          5 261 rmoveto
          -49 -22 21 37 64 83 14 100 hvcurveto
          -25 vlineto
          -66 -41 -45 -71 vhcurveto
          endchar
        </CharString>
        <CharString name="atilde">
          -56 callgsubr
          69 81 -46 81 -60 callsubr
          -63 69 181 120 -105 68 1 callgsubr
          hintmask 1011100011000000
          111 607 rmoveto
          69 hlineto
          hintmask 1011010011000000
          -63 callsubr
          hintmask 1011101000100000
          -50 callgsubr
          hintmask 1011011000100000
          -71 callgsubr
          hintmask 1011100010100000
          -49 callgsubr
          -50 callsubr
          hintmask 1011100011000000
          -49 callsubr
          hintmask 1011101001000000
          87 -619 -77 callsubr
          hintmask 0111100101000000
          -107 callsubr
          hintmask 1011101001000000
          -105 callsubr
          endchar
        </CharString>
        <CharString name="b">
          -12 78 callsubr
          185 -20 53 callgsubr
          242 124 hintmask 10111100
          346 -12 rmoveto
          129 81 84 192 189 -85 85 -117 -72 -54 -24 -49 -32 hvcurveto
          -6 258 -48 callgsubr
          hintmask 01111100
          -723 99 vlineto
          hintmask 10111100
          10 70 rlineto
          6 hlineto
          -55 35 59 -27 67 hhcurveto
          -36 103 rmoveto
          -85 -35 59 106 hvcurveto
          12 vlineto
          107 36 60 66 callgsubr
        </CharString>
        <CharString name="backslash">
          113 callgsubr
          190 -49 rmoveto
          87 hlineto
          -190 784 rlineto
          -86 hlineto
          endchar
        </CharString>
        <CharString name="bar">
          88 callgsubr
          -173 rmoveto
          93 896 -93 hlineto
          endchar
        </CharString>
        <CharString name="braceleft">
          83 callgsubr
          33 75 17 104 hintmask 10110100
          325 -159 rmoveto
          70 vlineto
          -44 -51 11 54 -1 hvcurveto
          55 -5 91 -2 53 vhcurveto
          hintmask 11111100
          68 -3 -29 40 -82 hhcurveto
          10 vlineto
          hintmask 10110100
          82 30 40 68 2 hvcurveto
          2 53 5 91 55 vvcurveto
          54 1 53 11 42 hhcurveto
          70 vlineto
          -118 -82 -22 -126 hvcurveto
          -194 vlineto
          -45 -49 -15 -43 vhcurveto
          hintmask 11111100
          -90 vlineto
          hintmask 11110100
          43 49 -15 -45 hvcurveto
          -194 vlineto
          hintmask 10110100
          -126 82 -22 118 vhcurveto
          endchar
        </CharString>
        <CharString name="braceright">
          83 callgsubr
          140 105 17 75 hintmask 10111000
          45 -159 rmoveto
          118 82 22 126 hvcurveto
          hintmask 11111000
          194 vlineto
          45 49 15 43 vhcurveto
          hintmask 10111100
          90 vlineto
          hintmask 10111000
          -43 -49 15 45 hvcurveto
          194 vlineto
          126 -82 22 -118 vhcurveto
          -70 vlineto
          42 53 -11 -54 hvcurveto
          1 -55 5 -91 1 -53 rrcurveto
          hintmask 10111100
          -68 3 30 -40 82 hhcurveto
          -10 vlineto
          hintmask 11111000
          -82 -30 -40 -68 -3 hvcurveto
          -1 -53 -5 -91 -1 -55 rrcurveto
          -54 -51 -11 -44 vhcurveto
          endchar
        </CharString>
        <CharString name="bracketleft">
          -330 -161 85 726 85 hstem
          68 103 vstem
          68 -161 rmoveto
          207 85 -104 726 104 85 -207 hlineto
          endchar
        </CharString>
        <CharString name="bracketright">
          -330 -161 85 726 85 hstem
          143 103 vstem
          39 -161 rmoveto
          207 896 -207 -85 104 -726 -104 hlineto
          endchar
        </CharString>
        <CharString name="breve">
          -311 593 85 callgsubr
          hstemhm
          11 311 hintmask 01100000
          166 593 -72 callsubr
          hintmask 10100000
          -51 callgsubr
          hintmask 01100000
          -89 callgsubr
          endchar
        </CharString>
        <CharString name="brokenbar">
          88 callgsubr
          357 rmoveto
          93 366 -93 hlineto
          -896 vmoveto
          93 366 -93 hlineto
          endchar
        </CharString>
        <CharString name="bullet">
          -294 212 263 hstem
          44 263 vstem
          175 212 rmoveto
          73 59 58 73 73 -59 59 -73 -73 -58 -59 -73 -73 58 -58 73 hvcurveto
          endchar
        </CharString>
        <CharString name="c">
          61 callsubr
          73 callsubr
          281 -12 -91 callsubr
        </CharString>
        <CharString name="cacute">
          61 callsubr
          53 132 73 callsubr
          64 callgsubr
          -20 -735 -91 callsubr
        </CharString>
        <CharString name="cacute.loclPLK">
          61 callsubr
          53 131 73 callsubr
          220 591 -57 callsubr
          33 -734 -91 callsubr
        </CharString>
        <CharString name="caron">
          -311 588 135 hstem
          7 319 vstem
          113 588 -100 callgsubr
          endchar
        </CharString>
        <CharString name="ccaron">
          61 callsubr
          50 135 73 callsubr
          214 588 -100 callgsubr
          173 -735 -91 callsubr
        </CharString>
        <CharString name="ccedilla">
          -107 52 callgsubr
          43 44 -21 24 -21 449 97 hstemhm
          37 122 141 95 -13 122 1 callgsubr
          hintmask 1010111010000000
          284 85 rmoveto
          -89 -36 56 115 hvcurveto
          12 vlineto
          116 37 57 83 72 31 -38 -74 115 callgsubr
          139 -83 70 -140 -163 -81 -86 -189 vhcurveto
          hintmask 1000111010000000
          -166 62 -87 127 -18 vhcurveto
          hintmask 1010111100000000
          -11 -69 -25 callsubr
          -93 hlineto
          hintmask 0100111010000000
          -49 vlineto
          hintmask 1010111100000000
          -5 29 39 -3 33 hhcurveto
          10 callsubr
          hintmask 1001011100000000
          4 23 rlineto
          hintmask 1001011010000000
          128 7 73 77 124 vvcurveto
          -116 hlineto
          hintmask 1010111010000000
          -72 -36 -40 -68 vhcurveto
          endchar
        </CharString>
        <CharString name="ccircumflex">
          61 callsubr
          50 135 -63 63 hstemhm
          37 122 229 116 hintmask 11101100
          108 34 callsubr
          hintmask 11011100
          57 72 rlineto
          hintmask 11101100
          -102 callsubr
          67 -735 -91 callsubr
        </CharString>
        <CharString name="cdotaccent">
          61 callsubr
          68 118 hstem
          37 122 49 118 62 116 vstem
          208 10 callgsubr
          73 -736 -91 callsubr
        </CharString>
        <CharString name="cedilla">
          -311 52 callgsubr
          88 hstemhm
          183 95 hintmask 10110000
          148 -182 rmoveto
          10 callsubr
          7 45 rlineto
          -77 hlineto
          -14 -88 -25 callsubr
          -93 hlineto
          hintmask 01110000
          -49 vlineto
          hintmask 10110000
          -5 29 39 -3 33 hhcurveto
          endchar
        </CharString>
        <CharString name="cent">
          -88 723 -20 hstem
          42 123 94 51 83 116 vstem
          259 -49 rmoveto
          51 117 hlineto
          126 8 73 77 124 vvcurveto
          -116 hlineto
          -65 -28 -39 -55 -7 vhcurveto
          352 vlineto
          53 -8 25 -37 -64 vvcurveto
          121 hlineto
          130 -74 70 -125 8 vhcurveto
          106 -51 -106 vlineto
          -146 -10 -71 -87 -177 vvcurveto
          -179 71 -86 146 -10 vhcurveto
          99 vmoveto
          -67 12 -27 56 101 vvcurveto
          13 vlineto
          102 28 56 66 11 vhcurveto
          endchar
        </CharString>
        <CharString name="circumflex">
          -311 588 135 -63 63 hstemhm
          7 319 hintmask 10100000
          7 34 callsubr
          hintmask 01100000
          57 72 rlineto
          hintmask 10100000
          -102 callsubr
          endchar
        </CharString>
        <CharString name="colon">
          -330 0 127 272 127 hstem
          95 124 vstem
          95 399 rmoveto
          44 callsubr
          -526 vmoveto
          44 callsubr
          endchar
        </CharString>
        <CharString name="comma">
          -366 0 127 hstem
          77 124 vstem
          77 -148 rmoveto
          65 hlineto
          59 159 rlineto
          116 -124 -127 49 vlineto
          endchar
        </CharString>
        <CharString name="copyright">
          93 -12 57 87 62 296 62 89 57 hstem
          13 59 118 75 188 74 137 -36 callgsubr
          87 vmoveto
          115 44 77 86 hvcurveto
          -70 hlineto
          -65 -25 -36 -64 -73 -30 42 106 107 32 41 71 65 20 -32 -69 vhcurveto
          74 hlineto
          106 -46 57 -113 -122 -56 -66 -144 -144 55 -66 123 vhcurveto
          endchar
        </CharString>
        <CharString name="currency">
          -88 102 79 338 79 hstem
          33 82 326 82 vstem
          74 99 rmoveto
          55 58 rlineto
          -37 40 55 -18 54 hhcurveto
          54 55 18 37 40 hvcurveto
          55 -58 45 45 -54 56 rlineto
          34 42 16 54 55 vvcurveto
          55 -16 56 -34 39 vhcurveto
          55 54 -48 48 -57 -56 rlineto
          33 -38 -54 18 -53 hhcurveto
          -53 -54 -18 -33 -38 hvcurveto
          -57 56 -48 -48 55 -54 rlineto
          -34 -39 -16 -56 -55 vvcurveto
          -55 16 -54 34 -42 vhcurveto
          -54 -56 rlineto
          249 37 rmoveto
          -91 -72 79 91 89 73 79 90 90 73 -79 -89 -91 -72 -79 -91 hvcurveto
          endchar
        </CharString>
        <CharString name="d">
          -12 78 callsubr
          185 -20 59 callgsubr
          hintmask 10111100
          9 callsubr
          hintmask 01111100
          -54 callsubr
          hintmask 10111100
          63 callsubr
          vhcurveto
          36 103 -55 callsubr
          endchar
        </CharString>
        <CharString name="dagger">
          -88 686 -20 hstem
          233 88 vstem
          223 -172 rmoveto
          108 hlineto
          -20 599 87 callsubr
          -102 89 callgsubr
          rlineto
          endchar
        </CharString>
        <CharString name="daggerdbl">
          -88 686 -20 hstem
          39 478 vstem
          227 -172 rmoveto
          101 hlineto
          -17 190 206 -17 rlineto
          106 vlineto
          -206 -18 20 171 -20 167 87 callsubr
          -101 89 callgsubr
          -20 -167 20 -171 -205 18 rlineto
          -106 vlineto
          205 17 rlineto
          endchar
        </CharString>
        <CharString name="dcaron">
          42 -12 78 callsubr
          33 115 -115 152 59 callgsubr
          54 120 hintmask 10110111
          9 callsubr
          hintmask 01101111
          -54 callsubr
          hintmask 10110111
          63 callsubr
          vhcurveto
          330 471 rmoveto
          63 hlineto
          57 123 rlineto
          43 callsubr
          -342 -480 -55 callsubr
          endchar
        </CharString>
        <CharString name="dcroat">
          -12 78 callsubr
          52 68 -68 133 59 callgsubr
          hintmask 00000000
          hintmask 10110110
          583 658 rmoveto
          -61 hlineto
          hintmask 10101110
          65 -120 vlineto
          hintmask 10110110
          -65 -149 vlineto
          hintmask 10101110
          -68 149 -125 -6 vlineto
          49 -32 -54 24 -72 hhcurveto
          -117 -85 -85 -189 63 callsubr
          67 59 27 55 35 hvcurveto
          6 hlineto
          hintmask 01101110
          10 -70 rlineto
          99 590 61 hlineto
          -181 -334 rmoveto
          hintmask 10101110
          -106 -35 -59 -85 -90 -32 52 113 vhcurveto
          13 vlineto
          114 33 52 89 84 36 -60 -107 vhcurveto
          endchar
        </CharString>
        <CharString name="degree">
          -244 401 72 152 73 hstem
          51 72 152 73 vstem
          199 401 rmoveto
          83 66 65 83 83 -66 66 -83 -83 -65 -66 -83 -83 65 -65 83 hvcurveto
          72 vmoveto
          -42 -34 34 42 43 34 33 42 43 33 -33 -43 -42 -33 -34 -43 hvcurveto
          endchar
        </CharString>
        <CharString name="dieresis">
          -311 613 110 hstem
          12 4 callsubr
          vstem
          12 613 -96 callgsubr
          endchar
        </CharString>
        <CharString name="divide">
          -95 1 106 100 97 101 107 hstem
          217 114 vstem
          217 405 rmoveto
          114 107 -114 hlineto
          -178 -305 rmoveto
          97 callsubr
          178 -303 rmoveto
          114 106 -114 hlineto
          endchar
        </CharString>
        <CharString name="dollar">
          -88 68 92 293 164 106 -20 hstemhm
          45 115 -103 118 77 51 73 114 -103 118 hintmask 11100101
          252 -49 rmoveto
          51 117 hlineto
          117 6 85 47 114 vvcurveto
          114 -110 27 -92 22 vhcurveto
          126 vlineto
          hintmask 11101110
          48 -7 25 -26 -35 vvcurveto
          -3 113 vlineto
          1 1 11 9 vvcurveto
          80 -76 56 -111 7 vhcurveto
          106 -51 -106 vlineto
          -114 -8 -81 -54 -94 vvcurveto
          -107 103 -28 92 -23 vhcurveto
          -143 vlineto
          hintmask 11110101
          -50 6 -41 23 -1 49 rrcurveto
          8 -114 vlineto
          -1 -6 0 -5 -5 vvcurveto
          -88 70 -67 137 -7 vhcurveto
          343 vmoveto
          hintmask 11101101
          -45 13 -32 15 32 vvcurveto
          25 23 24 54 5 vhcurveto
          51 -365 rmoveto
          129 vlineto
          48 -14 36 -18 -37 vvcurveto
          -38 -39 -18 -45 -4 vhcurveto
          endchar
        </CharString>
        <CharString name="dotaccent">
          -311 606 118 hstem
          108 118 vstem
          108 10 callgsubr
          endchar
        </CharString>
        <CharString name="dotbelowcomb">
          -644 -29 callgsubr
          hstem
          -225 118 vstem
          -225 -173 -92 callgsubr
          endchar
        </CharString>
        <CharString name="dotlessi">
          33 callsubr
          hstem
          79 120 vstem
          79 hmoveto
          -28 callgsubr
        </CharString>
        <CharString name="e">
          -53 callgsubr
          32 callsubr
          289 -12 -104 callgsubr
        </CharString>
        <CharString name="eacute">
          14 callgsubr
          230 -64 callsubr
          -22 -82 callsubr
        </CharString>
        <CharString name="ebreve">
          -88 -12 95 151 20 callsubr
          60 callgsubr
          hintmask 11101110
          277 593 -72 callsubr
          hintmask 11110110
          -51 callgsubr
          hintmask 11101110
          -89 callgsubr
          12 -605 -104 callgsubr
        </CharString>
        <CharString name="ecaron">
          -53 callgsubr
          50 135 32 callsubr
          224 588 -100 callgsubr
          171 -82 callsubr
        </CharString>
        <CharString name="ecircumflex">
          -53 callgsubr
          50 135 -63 63 60 callgsubr
          hintmask 11110110
          105 callsubr
          hintmask 11101110
          57 72 rlineto
          hintmask 11110110
          -93 callgsubr
          endchar
        </CharString>
        <CharString name="edieresis">
          -53 callgsubr
          75 110 hstemhm
          37 122 -35 4 callsubr
          -39 125 hintmask 11110110
          124 613 -16 callsubr
          -37 -82 callsubr
        </CharString>
        <CharString name="edotaccent">
          -53 callgsubr
          68 118 hstem
          37 122 59 118 59 125 vstem
          218 10 callgsubr
          71 -736 -104 callgsubr
        </CharString>
        <CharString name="egrave">
          14 callgsubr
          230 13 callgsubr
          167 -732 -104 callgsubr
        </CharString>
        <CharString name="eight">
          -88 -12 97 217 97 202 97 hstemhm
          35 123 -106 121 210 120 -106 124 hintmask 11110010
          278 -12 rmoveto
          172 71 90 110 74 -33 59 -78 31 hvcurveto
          hintmask 11101100
          62 33 31 57 65 vvcurveto
          105 -76 86 -149 -150 -76 -86 -105 -65 31 -57 62 -33 vhcurveto
          hintmask 11110010
          -77 -31 -33 -59 -74 vvcurveto
          -110 70 -90 173 vhcurveto
          hintmask 11101100
          411 vmoveto
          -66 -39 36 64 65 38 37 67 65 40 -37 -65 -64 -40 -36 -65 hvcurveto
          hintmask 11110010
          -314 vmoveto
          -78 -42 41 68 68 42 40 78 77 42 -40 -68 -68 -42 -41 -77 hvcurveto
          endchar
        </CharString>
        <CharString name="ellipsis">
          356 0 127 hstem
          105 124 209 124 208 125 vstem
          105 hmoveto
          44 callsubr
          333 -127 rmoveto
          44 callsubr
          332 -127 -5 callgsubr
          endchar
        </CharString>
        <CharString name="emacron">
          -53 callgsubr
          79 82 32 callsubr
          125 617 -43 callsubr
          164 -711 -104 callgsubr
        </CharString>
        <CharString name="emdash">
          356 225 90 hstem
          0 1000 vstem
          225 vmoveto
          1000 90 -1000 hlineto
          endchar
        </CharString>
        <CharString name="endash">
          -88 225 90 hstem
          0 556 vstem
          225 vmoveto
          556 90 -556 hlineto
          endchar
        </CharString>
        <CharString name="eng">
          -182 97 106 34 callgsubr
          4 callgsubr
          hintmask 11101100
          397 -182 rmoveto
          99 29 68 66 hvcurveto
          403 vlineto
          134 -70 49 -100 -76 -56 -33 -49 -37 vhcurveto
          -7 hlineto
          hintmask 11011100
          -10 70 rlineto
          -99 -526 79 callsubr
          hintmask 11101100
          75 52 53 66 60 37 -25 -75 vhcurveto
          -374 vlineto
          -29 -15 -16 -29 vhcurveto
          -49 -82 hlineto
          -8 20 36 -7 29 hhcurveto
          endchar
        </CharString>
        <CharString name="eogonek">
          -88 -182 68 102 -37 callgsubr
          hstemhm
          37 122 184 96 -44 125 hintmask 00000000
          hintmask 11111100
          450 112 callgsubr
          -22 vlineto
          -41 -17 30 43 41 17 34 15 18 hvcurveto
          hintmask 11111010
          30 31 18 44 1 57 rrcurveto
          -118 hlineto
          -70 -49 -31 -63 -91 -36 50 101 -4 vhcurveto
          361 36 hlineto
          187 -79 81 -152 -168 -84 -86 -189 -189 82 -86 166 vhcurveto
          hintmask 11111100
          28 26 4 8 24 hvcurveto
          -11 -21 -9 -27 -36 vvcurveto
          -75 53 -23 54 vhcurveto
          hintmask 11111010
          -289 501 rmoveto
          84 9 39 40 80 hhcurveto
          64 42 -35 -89 hvcurveto
          endchar
        </CharString>
        <CharString name="equal">
          -60 99 97 115 98 hstem
          56 472 vstem
          56 311 rmoveto
          472 98 -472 hlineto
          -310 vmoveto
          97 callsubr
          endchar
        </CharString>
        <CharString name="equivalence">
          -61 14 96 116 97 116 97 hstem
          56 473 vstem
          56 439 rmoveto
          95 callsubr
          -310 vmoveto
          95 callsubr
          -309 vmoveto
          473 96 -473 hlineto
          endchar
        </CharString>
        <CharString name="estimated">
          -44 -12 42 218 42 206 42 hstem
          45 108 298 108 vstem
          302 -12 rmoveto
          104 78 50 80 42 hvcurveto
          -34 21 rlineto
          -67 -34 -68 -42 -88 hhcurveto
          -62 -50 19 34 -37 hvcurveto
          165 406 5 vlineto
          165 -98 120 -159 -160 -97 -116 -159 -159 97 -116 160 vhcurveto
          -149 302 rmoveto
          152 vlineto
          34 37 50 20 62 hhcurveto
          61 50 -20 -35 38 hvcurveto
          -151 vlineto
          endchar
        </CharString>
        <CharString name="eth">
          -12 98 347 98 64 66 -66 128 -109 72 -21 58 22 callgsubr
          hintmask 11010011
          296 -12 rmoveto
          172 87 85 187 hvcurveto
          hintmask 11001011
          139 -46 113 -86 99 vhcurveto
          92 6 rlineto
          69 vlineto
          -157 -12 rlineto
          hintmask 11010011
          -18 17 -19 16 -22 16 rrcurveto
          -139 hlineto
          -3 -5 rlineto
          hintmask 11000111
          23 -18 22 -17 20 -18 rrcurveto
          hintmask 11100011
          -100 -8 rlineto
          hintmask 11010011
          -68 vlineto
          161 12 25 -28 21 -27 18 -28 rlinecurve
          -3 -3 rlineto
          10 -26 -30 6 -30 hhcurveto
          -139 -82 -96 -175 -187 87 -85 172 hvcurveto
          98 vmoveto
          -97 -38 56 113 hvcurveto
          12 vlineto
          112 38 54 97 96 39 -55 -114 vhcurveto
          -9 vlineto
          -113 -39 -56 -96 vhcurveto
          endchar
        </CharString>
        <CharString name="exclam">
          -330 94 callsubr
          hintmask 00000000
          hintmask 11010000
          119 188 rmoveto
          -3 callgsubr
          hintmask 11100000
          -24 -188 -5 callgsubr
          endchar
        </CharString>
        <CharString name="exclamdbl">
          -76 94 callsubr
          153 125 -101 76 hintmask 00000000
          hintmask 11010100
          119 188 rmoveto
          -3 callgsubr
          253 hmoveto
          -3 callgsubr
          hintmask 11101000
          -277 -188 -5 callgsubr
          253 -127 -5 callgsubr
          endchar
        </CharString>
        <CharString name="exclamdown">
          -311 398 127 hstem
          105 124 vstem
          105 398 rmoveto
          44 callsubr
          -8 -686 rmoveto
          139 hlineto
          -32 498 rlineto
          -75 hlineto
          -11 -169 -12 -202 -9 -127 rrcurveto
          endchar
        </CharString>
        <CharString name="f">
          -330 92 callgsubr
          107 98 hstem
          85 120 vstem
          85 hmoveto
          76 callgsubr
          62 hlineto
          -47 callsubr
          vlineto
          endchar
        </CharString>
        <CharString name="f_f">
          -16 92 callgsubr
          107 98 hstem
          85 120 194 120 vstem
          564 633 rmoveto
          50 83 hlineto
          8 -20 -35 7 -28 hhcurveto
          -103 -29 -69 -68 hvcurveto
          -68 -194 62 vlineto
          -47 callsubr
          -428 120 428 194 -428 76 callgsubr
          62 vlineto
          29 15 16 30 vhcurveto
          endchar
        </CharString>
        <CharString name="fi">
          -71 92 callgsubr
          82 115 111 callsubr
          hintmask 11101100
          85 hmoveto
          76 callgsubr
          hlineto
          hintmask 11011100
          62 vlineto
          -47 callsubr
          vlineto
          hintmask 11101100
          299 180 -13 callgsubr
          -723 vmoveto
          -28 callgsubr
        </CharString>
        <CharString name="five">
          -88 -12 98 264 96 131 109 hstem
          36 123 233 124 vstem
          277 -12 rmoveto
          147 92 85 151 151 -90 71 -114 -65 -40 -21 -20 -27 hvcurveto
          11 172 rlineto
          290 109 -394 hlineto
          -28 -380 113 -15 rlineto
          33 22 36 26 50 hhcurveto
          65 47 -42 -84 -93 -46 -45 -69 -71 -47 49 78 hvcurveto
          -123 hlineto
          -140 96 -85 145 vhcurveto
          endchar
        </CharString>
        <CharString name="fiveeighths">
          60 callsubr
          -41 64 118 63 53 68 12 -20 hstemhm
          41 76 -58 69.5 91.5 77 235 76 callsubr
          hintmask 1101110011100100
          103 -12 rmoveto
          82 hlineto
          hintmask 1101101101100100
          546 710 rlineto
          -82 hlineto
          -479 -378 rmoveto
          78 49 45 81 81 -49 38 -61 hvcurveto
          hintmask 1101110011100100
          -27 -20 -7 -8 -14 hvcurveto
          5 68 rlineto
          148 68 -213 hlineto
          -14 -198 68 -9 rlineto
          14 13 14 9 21 hhcurveto
          30 22 -17 -39 -41 -21 -21 -29 hvcurveto
          hintmask 1101110101100100
          -32 -21 20 33 hvcurveto
          -76 hlineto
          hintmask 1101101101100100
          -73 51 -44 78 vhcurveto
          hintmask 1101110011100100
          492 -332 31 callsubr
          hintmask 1110110011011000
          -15 callsubr
          hintmask 1101110011100100
          96 callgsubr
          -59 38 -49 92 vhcurveto
          hintmask 1110110011011000
          -14 callgsubr
          hintmask 1101110011100100
          -22 callsubr
        </CharString>
        <CharString name="fl">
          -71 92 callgsubr
          107 90 111 callsubr
          hintmask 11011100
          85 hmoveto
          76 callgsubr
          62 hlineto
          -47 callsubr
          vlineto
          299 -428 rmoveto
          120 hlineto
          hintmask 11101100
          723 -120 vlineto
          endchar
        </CharString>
        <CharString name="florin">
          -88 -183 98 471 99 148 98 hstem
          29 498 vstem
          108 -183 rmoveto
          103 44 69 68 14 hvcurveto
          93 432 rlineto
          96 hlineto
          20 99 rlineto
          -96 hlineto
          22 103 rlineto
          29 7 18 16 30 hhcurveto
          51 hlineto
          17 83 rlineto
          8 -18 -33 7 -29 hhcurveto
          -103 -44 -69 -68 -14 hvcurveto
          -24 -109 rlineto
          -76 hlineto
          -20 -99 rlineto
          76 hlineto
          -91 -426 rlineto
          -29 -7 -17 -16 -30 hhcurveto
          -51 hlineto
          -17 -83 rlineto
          -8 18 33 -7 28 hhcurveto
          endchar
        </CharString>
        <CharString name="four">
          -88 21 -21 154 98 446 -20 hstem
          324 120 vstem
          324 hmoveto
          120 154 86 98 -86 344 -57 hlineto
          -15 -53 -23 -64 -25 -50 rrcurveto
          -177 -195 vlineto
          42 55 118 212 42 179 rrcurveto
          -125 hlineto
          -42 -170 -63 -144 -79 -131 rrcurveto
          -99 302 vlineto
          endchar
        </CharString>
        <CharString name="fraction">
          26 callsubr
        </CharString>
        <CharString name="franc">
          -88 21 -21 275 106 -27 122 104 106 hstemhm
          67 126 102 120 hintmask 11011100
          67 hmoveto
          126 275 102 -275 120 212 hlineto
          hintmask 10111100
          97 35 45 63 vhcurveto
          38 113 hlineto
          0 -18 9 -25 vhcurveto
          hintmask 11011100
          -53 -28 -45 -50 -15 hvcurveto
          -7 hlineto
          hintmask 10111100
          -11 83 rlineto
          -99 hlineto
          hintmask 11011100
          -83 -102 199 227 106 -353 vlineto
          endchar
        </CharString>
        <CharString name="g">
          -20 callsubr
          -26 callgsubr
          -117 116 1 callgsubr
          hintmask 1111100010000000
          157 -182 -46 callgsubr
          hintmask 1111010100000000
          -77 callgsubr
          hintmask 1111001001000000
          -83 callgsubr
          hintmask 1111010100000000
          -31 callgsubr
          hintmask 1111100100000000
          41 callgsubr
          hintmask 1111100010000000
          69 callgsubr
          hintmask 1111001100000000
          -69 callsubr
          hintmask 1111100010000000
          -78 callsubr
        </CharString>
        <CharString name="g_tilde.loclGUA">
          -20 callsubr
          69 52 callsubr
          22 121 -91 121 -105 120 -59 -4 callsubr
          -60 72 callgsubr
          1 callgsubr
          hintmask 1111100001010000
          129 607 rmoveto
          69 hlineto
          hintmask 1111010001010000
          -63 callsubr
          hintmask 1111100010100000
          -50 callgsubr
          hintmask 1111010010100000
          -71 callgsubr
          hintmask 1111100001100000
          -49 callgsubr
          -50 callsubr
          hintmask 1111100001010000
          -49 callsubr
          hintmask 1111101000001000
          28 -789 -46 callgsubr
          hintmask 1111100100010000
          -77 callgsubr
          hintmask 1111100010000100
          -83 callgsubr
          hintmask 1111100100010000
          -31 callgsubr
          hintmask 1111101000010000
          41 callgsubr
          hintmask 1111101000001000
          69 callgsubr
          hintmask 1111100010010000
          -69 callsubr
          hintmask 1111101000001000
          -78 callsubr
        </CharString>
        <CharString name="gbreve">
          -20 callsubr
          91 callsubr
          -26 callgsubr
          -117 116 hintmask 1111010011000000
          295 593 -72 callsubr
          hintmask 1111100011000000
          -51 callgsubr
          hintmask 1111010011000000
          -89 callgsubr
          hintmask 1111011000100000
          -138 -775 -46 callgsubr
          hintmask 1111010101000000
          -77 callgsubr
          hintmask 1111010010010000
          -83 callgsubr
          hintmask 1111010101000000
          -31 callgsubr
          hintmask 1111011001000000
          41 callgsubr
          hintmask 1111011000100000
          69 callgsubr
          hintmask 1111010011000000
          -69 callsubr
          hintmask 1111011000100000
          -78 callsubr
        </CharString>
        <CharString name="gcaron">
          -20 callsubr
          50 135 -26 callgsubr
          -117 116 hintmask 1111100110000000
          242 588 -100 callgsubr
          hintmask 1111110001000000
          21 -76 callgsubr
        </CharString>
        <CharString name="gcircumflex">
          -20 callsubr
          50 25 -25 135 -63 63 -26 callgsubr
          -98 97 hintmask 1111010001100000
          140 588 rmoveto
          104 hlineto
          hintmask 1111001001100000
          54 72 rlineto
          hintmask 1111010100010000
          53 -72 rlineto
          103 hlineto
          -102 135 rlineto
          -109 hlineto
          -86 -905 -46 callgsubr
          hintmask 1111010010100000
          -77 callgsubr
          hintmask 1111100001001000
          67 15 42 45 71 vvcurveto
          -97 hlineto
          -2 -24 -18 -49 -63 -18 rrcurveto
          11 -30 -35 5 -39 hhcurveto
          -144 -82 -69 -109 -61 27 -48 48 -31 hvcurveto
          hintmask 1111010010100000
          -31 callgsubr
          hintmask 1111010100100000
          41 callgsubr
          hintmask 1111010100010000
          69 callgsubr
          hintmask 1111010001100000
          -69 callsubr
          hintmask 1111010100010000
          -78 callsubr
        </CharString>
        <CharString name="gcommaaccent">
          -20 callsubr
          55 96 hstemhm
          22 121 -91 121 -105 120 49 121 44 72 callgsubr
          hintmask 1111100111000000
          237 593 rmoveto
          121 96 -49 hlineto
          49 91 rlineto
          -63 hlineto
          -58 -102 rlineto
          hintmask 1111110010100000
          -80 -860 -46 callgsubr
          hintmask 1111101011000000
          -77 callgsubr
          hintmask 1111100110010000
          -83 callgsubr
          hintmask 1111101011000000
          -31 callgsubr
          hintmask 1111110011000000
          41 callgsubr
          hintmask 1111110010100000
          69 callgsubr
          hintmask 1111100111000000
          -69 callsubr
          hintmask 1111110010100000
          -78 callsubr
        </CharString>
        <CharString name="gdotaccent">
          -20 callsubr
          68 118 hstemhm
          22 121 -91 121 -105 120 48 118 48 72 callgsubr
          hintmask 1111100111000000
          236 10 callgsubr
          hintmask 1111110010100000
          -79 -906 -46 callgsubr
          hintmask 1111101011000000
          -77 callgsubr
          hintmask 1111100110010000
          -83 callgsubr
          hintmask 1111101011000000
          -31 callgsubr
          hintmask 1111110011000000
          41 callgsubr
          hintmask 1111110010100000
          69 callgsubr
          hintmask 1111100111000000
          -69 callsubr
          hintmask 1111110010100000
          -78 callsubr
        </CharString>
        <CharString name="germandbls">
          -33 0 98 233 104 203 97 hstemhm
          65 120 68 183 -8 122 -97 121 hintmask 11110010
          65 hmoveto
          120 519 hlineto
          77 49 42 78 vhcurveto
          hintmask 11110100
          77 39 -43 -57 -57 -39 -46 -57 hvcurveto
          hintmask 11111010
          -79 -104 84 hlineto
          hintmask 11110010
          71 45 -51 -65 -63 -44 -54 -68 hvcurveto
          -88 -98 100 hlineto
          133 88 89 118 88 -50 72 -88 25 hvcurveto
          4 vlineto
          hintmask 11110100
          66 23 48 58 78 vvcurveto
          106 -87 74 -148 -139 -111 -64 -158 vhcurveto
          endchar
        </CharString>
        <CharString name="grave">
          -311 591 132 hstem
          75 203 vstem
          183 13 callgsubr
          endchar
        </CharString>
        <CharString name="greater">
          -60 3 513 hstem
          56 474 vstem
          56 3 84 callsubr
          -109 109 callsubr
          endchar
        </CharString>
        <CharString name="greaterequal">
          -95 0 97 hstem
          38 474 vstem
          38 123 84 callsubr
          -108 109 callsubr
          -232 vmoveto
          95 callsubr
          endchar
        </CharString>
        <CharString name="guillemotleft">
          -88 -3 callsubr
          hstem
          61 446 vstem
          204 50 callgsubr
          356 -200 rmoveto
          90 hlineto
          -116 200 116 200 rlineto
          -90 hlineto
          -143 -200 rlineto
          endchar
        </CharString>
        <CharString name="guillemotright">
          -88 -3 callsubr
          hstem
          48 446 vstem
          48 49 callgsubr
          98 -200 rmoveto
          89 hlineto
          144 200 -144 200 rlineto
          -89 hlineto
          115 -200 rlineto
          endchar
        </CharString>
        <CharString name="guilsinglleft">
          -311 -3 callsubr
          hstem
          58 232 vstem
          201 50 callgsubr
          endchar
        </CharString>
        <CharString name="guilsinglright">
          -311 -3 callsubr
          hstem
          43 232 vstem
          43 49 callgsubr
          endchar
        </CharString>
        <CharString name="h">
          21 70 callgsubr
          185 -20 hstem
          70 120 215 120 vstem
          70 hmoveto
          -90 callgsubr
          -73 -52 -30 -42 -33 vhcurveto
          -7 257 -48 callgsubr
          endchar
        </CharString>
        <CharString name="hbar">
          21 70 callgsubr
          52 68 -68 133 4 callgsubr
          hintmask 11011100
          70 hmoveto
          -90 callgsubr
          -73 -52 -30 -42 -33 vhcurveto
          -7 124 149 hlineto
          hintmask 11101100
          68 -149 vlineto
          hintmask 11011100
          65 -120 vlineto
          hintmask 11101100
          -65 -61 vlineto
          hintmask 11011100
          -68 61 vlineto
          endchar
        </CharString>
        <CharString name="hcircumflex">
          21 70 callgsubr
          185 -20 45 135 4 callgsubr
          hintmask 00000000
          hintmask 11111100
          -30 748 -98 callgsubr
          -6 -883 rmoveto
          -90 callgsubr
          -73 -52 -30 -42 -33 vhcurveto
          -7 hlineto
          hintmask 11101100
          257 -120 vlineto
          endchar
        </CharString>
        <CharString name="hookabovecomb">
          -644 591 107 callsubr
          -213 64 -19 95 hintmask 11100000
          -213 78 callgsubr
          hintmask 11010000
          -102 callgsubr
          hintmask 11100000
          -14 hlineto
          endchar
        </CharString>
        <CharString name="house">
          -40 0 60 hstem
          77 59 332 59 vstem
          77 hmoveto
          450 310 hlineto
          -225 253 -225 -253 rlineto
          59 -250 rmoveto
          226 vlineto
          166 189 166 -189 rlineto
          -226 vlineto
          endchar
        </CharString>
        <CharString name="hungarumlaut">
          -311 591 132 hstem
          14 357 vstem
          14 591 -57 callgsubr
          endchar
        </CharString>
        <CharString name="hyphen">
          40 callgsubr
        </CharString>
        <CharString name="i">
          -385 21 18 callsubr
          endchar
        </CharString>
        <CharString name="i.loclTRK">
          33 callsubr
          100 118 hstem
          79 120 vstem
          79 10 callgsubr
          -724 vmoveto
          -28 callgsubr
        </CharString>
        <CharString name="iacute">
          -366 21 32 callgsubr
          vstem
          76 591 rmoveto
          94 hlineto
          108 81 callsubr
          -120 hlineto
          -78 113 callsubr
          endchar
        </CharString>
        <CharString name="iacute_j.loclNLD">
          -107 -182 97 106 32 callgsubr
          149 120 vstem
          76 591 rmoveto
          94 hlineto
          108 81 callsubr
          -120 hlineto
          202 -132 -94 callsubr
          -361 113 callsubr
          260 -708 -84 callgsubr
        </CharString>
        <CharString name="ibreve">
          33 callsubr
          87 85 callgsubr
          hstemhm
          79 120 hintmask 11011000
          140 593 rmoveto
          115 42 69 61 hvcurveto
          -80 hlineto
          hintmask 11101000
          -51 callgsubr
          hintmask 11011000
          -53 -19 29 21 -3 hvcurveto
          -80 hlineto
          -61 41 -69 114 vhcurveto
          -61 -593 -33 callsubr
        </CharString>
        <CharString name="icircumflex">
          33 callsubr
          82 135 -63 63 hstemhm
          79 120 hintmask 11101000
          -20 34 callsubr
          hintmask 11011000
          57 72 rlineto
          hintmask 11101000
          -102 callsubr
          -7 113 callsubr
          endchar
        </CharString>
        <CharString name="idieresis">
          33 callsubr
          107 110 hstemhm
          -16 108 -13 120 -13 108 hintmask 00000000
          hintmask 11110100
          -16 613 rmoveto
          108 110 -108 -88 callsubr
          hintmask 11101000
          -107 113 callsubr
          endchar
        </CharString>
        <CharString name="igrave">
          -366 21 32 callgsubr
          vstem
          110 591 -39 callsubr
          -81 132 rlineto
          -121 hlineto
          -1 -3 rlineto
          77 -720 -33 callsubr
        </CharString>
        <CharString name="ij">
          -126 73 callgsubr
          115 hstem
          70 120 139 39 callgsubr
          259 -115 -13 callgsubr
          -259 113 callsubr
          250 -708 -84 callgsubr
        </CharString>
        <CharString name="imacron">
          33 callsubr
          133 82 hstem
          79 120 vstem
          -4 639 rmoveto
          287 82 -287 hlineto
          83 -721 -33 callsubr
        </CharString>
        <CharString name="infinity">
          69 139 80 157 80 hstem
          47 87 443 87 vstem
          195 139 rmoveto
          69 46 41 54 45 hvcurveto
          -72 52 56 -23 51 hhcurveto
          83 67 64 97 93 -65 63 -85 -75 -45 -54 -39 -34 hvcurveto
          56 -43 -48 37 -68 hhcurveto
          -90 -64 -67 -93 -93 65 -64 83 hvcurveto
          9 80 rmoveto
          -40 -30 35 42 49 31 31 37 43 24 -25 -57 40 hvcurveto
          -38 -28 -34 -37 -43 hhcurveto
          307 hmoveto
          -37 -28 20 59 -43 hvcurveto
          52 42 25 26 38 hhcurveto
          41 28 -35 -45 -37 -26 -40 -40 hvcurveto
          endchar
        </CharString>
        <CharString name="integral">
          -370 -141 63 875 62 hstem
          78 125 vstem
          26 -141 rmoveto
          96 81 17 95 150 -28 619 0 hvcurveto
          100 callsubr
          -151 27 -616 0 hvcurveto
          -44 -33 -14 -46 vhcurveto
          endchar
        </CharString>
        <CharString name="integralbt">
          -40 -250 62 hstem
          261 97 vstem
          180 -250 rmoveto
          96 82 18 94 80 -7 477 -7 440 hvcurveto
          -100 hlineto
          17 -990 rlineto
          -43 -35 -14 -46 vhcurveto
          endchar
        </CharString>
        <CharString name="integraltp">
          -40 797 62 hstem
          246 97 vstem
          260 -250 rmoveto
          100 hlineto
          -17 990 rlineto
          100 callsubr
          -80 7 -477 7 -440 hvcurveto
          endchar
        </CharString>
        <CharString name="intersection">
          77 21 -21 594 82 hstem
          94 85 361 86 vstem
          94 hmoveto
          85 410 hlineto
          106 81 78 100 100 80 -78 -106 vhcurveto
          -410 86 410 vlineto
          151 -119 115 -147 -147 -119 -115 -151 vhcurveto
          endchar
        </CharString>
        <CharString name="iogonek">
          -366 -190 68 -54 54 -33 -21 197 -13 callsubr
          100 118 hstemhm
          79 120 hintmask 00111110
          197 724 rmoveto
          -118 -118 118 hlineto
          2 -606 rmoveto
          0 callsubr
          -523 vlineto
          hintmask 10011110
          -28 -26 -24 -30 -48 vvcurveto
          -68 55 -21 49 vhcurveto
          hintmask 00111110
          23 21 5 9 24 hvcurveto
          hintmask 01011110
          54 callsubr
          28 21 28 13 14 hvcurveto
          endchar
        </CharString>
        <CharString name="itilde">
          33 callsubr
          101 52 callsubr
          -27 68 38 120 38 69 hintmask 11101100
          -27 607 rmoveto
          68 hlineto
          hintmask 11011100
          26 3 12 9 18 hhcurveto
          hintmask 11101110
          46 41 -35 50 hhcurveto
          hintmask 11011110
          68 27 54 62 hvcurveto
          -69 hlineto
          hintmask 11101110
          -26 -3 -12 -9 -17 -47 -40 35 -52 hhcurveto
          hintmask 11101100
          -66 -27 -54 -62 hvcurveto
          106 -607 -33 callsubr
        </CharString>
        <CharString name="j">
          -385 -182 97 611 53 callsubr
          -9 -905 -84 callgsubr
        </CharString>
        <CharString name="jcircumflex">
          -385 -182 97 611 -20 82 135 -63 63 53 callgsubr
          hintmask 11101000
          -30 588 rmoveto
          104 hlineto
          hintmask 11011000
          56 72 rlineto
          hintmask 11101000
          56 -72 rlineto
          104 hlineto
          -105 135 rlineto
          -109 hlineto
          -15 -905 -84 callgsubr
        </CharString>
        <CharString name="k">
          -107 21 -13 callsubr
          217 -20 hstem
          70 -32 callgsubr
          423 -120 vlineto
          endchar
        </CharString>
        <CharString name="kcommaaccent">
          -107 91 callgsubr
          526 -20 217 -20 hstem
          70 120 42 -32 callgsubr
          423 -120 vlineto
          164 -953 rmoveto
          -65 callgsubr
        </CharString>
        <CharString name="kgreenlandic">
          -107 21 -21 526 -20 hstem
          70 -32 callgsubr
          226 -120 vlineto
          endchar
        </CharString>
        <CharString name="l">
          -385 21 88 callsubr
          723 -48 callgsubr
          endchar
        </CharString>
        <CharString name="lacute">
          -385 21 -21 723 -20 48 132 53 callgsubr
          hintmask 00000000
          hintmask 11110000
          81 751 -94 callsubr
          -92 -883 rmoveto
          120 hlineto
          hintmask 11010000
          723 -120 vlineto
          endchar
        </CharString>
        <CharString name="lcaron">
          -291 21 -21 571 115 -115 152 53 callgsubr
          52 120 hintmask 11011000
          70 hmoveto
          120 hlineto
          hintmask 10111000
          723 -120 vlineto
          172 -264 rmoveto
          63 hlineto
          57 123 rlineto
          hintmask 11011000
          43 callsubr
          endchar
        </CharString>
        <CharString name="lcommaaccent">
          -385 -142 96 67 88 callsubr
          723 -48 callgsubr
          1 -953 rmoveto
          -65 callgsubr
        </CharString>
        <CharString name="ldot">
          -305 21 -21 294 127 302 -20 hstem
          70 120 49 125 80 callsubr
          723 -48 callgsubr
          169 -429 -5 callgsubr
          endchar
        </CharString>
        <CharString name="less">
          -60 3 513 hstem
          54 474 vstem
          528 3 rmoveto
          108 110 callgsubr
          109 vlineto
          -474 -197 rlineto
          -120 vlineto
          endchar
        </CharString>
        <CharString name="lessequal">
          -95 0 97 hstem
          38 474 vstem
          512 123 rmoveto
          109 110 callgsubr
          108 vlineto
          -474 -197 rlineto
          -120 vlineto
          1 -319 rmoveto
          95 callsubr
          endchar
        </CharString>
        <CharString name="lira">
          -88 0 101 96 85 61 85 172 54 callgsubr
          96 rlineto
          160 85 -160 61 160 85 -159 85 26 callgsubr
          -71 -81 -85 81 -61 -81 -85 81 -96 -67 vlineto
          endchar
        </CharString>
        <CharString name="logicalnot">
          -60 358 96 hstem
          444 93 vstem
          444 194 rmoveto
          93 260 -490 -96 397 hlineto
          endchar
        </CharString>
        <CharString name="longs">
          -366 92 callgsubr
          107 98 hstem
          85 120 vstem
          85 hmoveto
          120 588 hlineto
          -47 callsubr
          vlineto
          endchar
        </CharString>
        <CharString name="lozenge">
          -50 617 111 0 -20 hstemhm
          48 477 hintmask 01100000
          227 -133 rmoveto
          120 hlineto
          178 431 -178 430 -45 callsubr
          -179 -430 rlineto
          239 -320 rmoveto
          -125 320 rlineto
          hintmask 10100000
          125 319 125 -319 rlineto
          endchar
        </CharString>
        <CharString name="lslash">
          -385 21 88 callsubr
          348 hlineto
          68 51 rlineto
          93 vlineto
          -68 -51 rlineto
          282 -120 -368 vlineto
          -70 -51 rlineto
          -93 vlineto
          70 50 rlineto
          endchar
        </CharString>
        <CharString name="m">
          226 44 callgsubr
          53 callgsubr
          187 120 186 120 hintmask 11011100
          70 hmoveto
          79 callsubr
          75 46 53 58 49 34 -24 -72 vhcurveto
          -338 114 callsubr
          vlineto
          75 44 53 59 49 34 -24 -72 vhcurveto
          -338 120 362 vlineto
          129 -68 47 -93 -70 -55 -35 -47 -33 vhcurveto
          -8 hlineto
          59 -26 -50 23 -61 hhcurveto
          -69 -51 -34 -48 -33 hvcurveto
          -7 hlineto
          hintmask 10111100
          46 callsubr
          endchar
        </CharString>
        <CharString name="macron">
          48 callsubr
        </CharString>
        <CharString name="minus">
          -60 207 97 hstem
          56 472 vstem
          56 207 rmoveto
          97 callsubr
          endchar
        </CharString>
        <CharString name="minute">
          -422 509 177 hstem
          50 153 vstem
          50 509 72 callsubr
          -119 hlineto
          endchar
        </CharString>
        <CharString name="multiply">
          -60 40 431 hstem
          77 430 vstem
          145 40 rmoveto
          147 147 146 -147 69 69 -147 145 147 148 -68 69 -147 -148 -147 147 -68 -68 147 -147 -147 -146 rlineto
          endchar
        </CharString>
        <CharString name="n">
          44 callgsubr
          4 callgsubr
          hintmask 11011000
          70 hmoveto
          120 306 hlineto
          24 callsubr
          hintmask 10111000
          46 callsubr
          endchar
        </CharString>
        <CharString name="nacute">
          44 callgsubr
          85 132 4 callgsubr
          hintmask 11011100
          65 callgsubr
          -259 -723 rmoveto
          120 306 hlineto
          24 callsubr
          hintmask 10111100
          46 callsubr
          endchar
        </CharString>
        <CharString name="nacute.loclPLK">
          44 callgsubr
          85 131 4 callgsubr
          hintmask 11011100
          248 591 -57 callsubr
          -206 -722 rmoveto
          120 306 hlineto
          24 callsubr
          hintmask 10111100
          46 callsubr
          endchar
        </CharString>
        <CharString name="napostrophe">
          28 21 70 callgsubr
          -79 67 45 115 hstemhm
          -2 120 32 -39 callgsubr
          hintmask 00000000
          hintmask 10111110
          -2 459 rmoveto
          62 hlineto
          58 123 rlineto
          43 callsubr
          104 -571 rmoveto
          79 callsubr
          hintmask 11011110
          24 callsubr
          hintmask 10111110
          46 callsubr
          endchar
        </CharString>
        <CharString name="ncaron">
          44 callgsubr
          82 135 4 callgsubr
          hintmask 11011100
          242 588 -100 callgsubr
          -66 -723 rmoveto
          120 306 hlineto
          24 callsubr
          hintmask 10111100
          46 callsubr
          endchar
        </CharString>
        <CharString name="ncommaaccent">
          -142 96 67 34 callgsubr
          53 callgsubr
          46 120 49 120 hintmask 11101110
          70 hmoveto
          120 306 hlineto
          24 callsubr
          hintmask 11011110
          46 callsubr
          168 -756 rmoveto
          -65 callgsubr
        </CharString>
        <CharString name="nine">
          -88 -12 98 160 96 258 98 hstemhm
          33 123 -101 122 215 123 hintmask 00000000
          hintmask 11101100
          268 -12 rmoveto
          157 90 91 284 254 -95 81 -157 hvcurveto
          hintmask 11110100
          -133 -97 -87 -139 -129 65 -97 145 81 55 45 17 13 hvcurveto
          -137 -2 -17 -85 -100 hhcurveto
          hintmask 11101100
          -67 -29 42 74 hvcurveto
          -122 hlineto
          -121 63 -93 150 vhcurveto
          hintmask 11110100
          1 354 rmoveto
          -77 -36 54 75 72 36 57 77 78 36 -56 -72 -76 -36 -54 -78 hvcurveto
          endchar
        </CharString>
        <CharString name="notequal">
          -95 99 97 115 98 hstem
          38 472 vstem
          112 25 rmoveto
          80 hlineto
          39 74 rlineto
          279 97 -228 hlineto
          62 115 rlineto
          166 98 -114 hlineto
          41 75 rlineto
          -80 hlineto
          -40 -75 rlineto
          -279 -98 227 hlineto
          -62 -115 rlineto
          -165 -97 114 hlineto
          endchar
        </CharString>
        <CharString name="ntilde">
          44 callgsubr
          101 81 -46 81 53 callgsubr
          -61 -4 callsubr
          -57 120 1 callgsubr
          hintmask 1101001010000000
          129 607 rmoveto
          69 hlineto
          hintmask 1100101010000000
          -63 callsubr
          hintmask 1101010100000000
          -50 callgsubr
          hintmask 1100110100000000
          -71 callgsubr
          hintmask 1101001100000000
          -49 callgsubr
          -50 callsubr
          hintmask 1101001010000000
          -49 callsubr
          hintmask 1101010010000000
          -59 -607 rmoveto
          120 306 hlineto
          24 callsubr
          hintmask 1011010010000000
          46 callsubr
          endchar
        </CharString>
        <CharString name="numbersign">
          -88 9 -21 181 96 135 96 202 -20 hstem
          9 535 vstem
          41 -12 rmoveto
          94 hlineto
          38 181 rlineto
          131 hlineto
          -37 -181 rlineto
          95 hlineto
          37 181 rlineto
          99 96 -79 hlineto
          28 135 rlineto
          97 96 -77 102 callgsubr
          -132 102 callgsubr
          -92 -96 71 hlineto
          -28 -135 rlineto
          -89 -96 69 hlineto
          115 96 rmoveto
          28 135 rlineto
          131 hlineto
          -28 -135 rlineto
          endchar
        </CharString>
        <CharString name="o">
          -33 callgsubr
          3 callsubr
          296 -12 -104 callsubr
        </CharString>
        <CharString name="oacute">
          -2 callgsubr
          65 callgsubr
          -33 -85 callgsubr
        </CharString>
        <CharString name="oacute.loclPLK">
          -33 callgsubr
          53 131 3 callsubr
          248 591 -57 callsubr
          20 -734 -104 callsubr
        </CharString>
        <CharString name="obreve">
          -33 callgsubr
          91 callsubr
          22 callgsubr
          hintmask 11011100
          295 593 -72 callsubr
          hintmask 11101100
          -51 callgsubr
          hintmask 11011100
          -89 callgsubr
          1 -605 -104 callsubr
        </CharString>
        <CharString name="ocircumflex">
          -33 callgsubr
          50 135 -63 63 22 callgsubr
          hintmask 11101100
          136 34 callsubr
          hintmask 11011100
          57 72 rlineto
          hintmask 11101100
          -91 callgsubr
          endchar
        </CharString>
        <CharString name="odieresis">
          -33 callgsubr
          75 110 99 callgsubr
          -19 4 callsubr
          -21 124 hintmask 11101100
          142 613 -96 callgsubr
          hintmask 11110010
          -48 -85 callgsubr
        </CharString>
        <CharString name="oe">
          300 -12 95 -95 98 148 85 121 98 -95 95 99 callgsubr
          265 12 callsubr
          hintmask 01110111
          293 -12 rmoveto
          86 65 26 52 43 hvcurveto
          -52 41 64 -26 86 hhcurveto
          131 90 callgsubr
          hintmask 10110111
          -70 -49 -31 -63 -91 -36 50 101 -4 vhcurveto
          361 36 hlineto
          187 -79 81 -152 -86 -64 -26 -53 -41 vhcurveto
          53 -43 -65 26 -86 hhcurveto
          -169 -87 -86 -189 hvcurveto
          hintmask 01110111
          -189 87 -86 169 vhcurveto
          257 331 rmoveto
          hintmask 01101111
          84 9 39 40 80 hhcurveto
          64 42 -35 -89 hvcurveto
          -491 -233 rmoveto
          -94 -38 56 116 hvcurveto
          12 vlineto
          hintmask 01110111
          114 38 56 94 95 38 -57 -117 vhcurveto
          -8 vlineto
          hintmask 01101111
          -116 -38 -56 -95 vhcurveto
          endchar
        </CharString>
        <CharString name="ogonek">
          -311 -182 68 -68 194 hstemhm
          76 95 hintmask 10100000
          180 5 callsubr
        </CharString>
        <CharString name="ograve">
          -2 callgsubr
          248 13 callgsubr
          156 -732 -104 callsubr
        </CharString>
        <CharString name="ohorn">
          -33 callgsubr
          21 127 22 callgsubr
          -46 145 hintmask 00000000
          hintmask 11110100
          509 686 -34 callsubr
          hintmask 11010100
          -64 callgsubr
          hintmask 11011000
          -8 callgsubr
          hintmask 11110100
          27 callgsubr
          hintmask 11011000
          -68 callsubr
          endchar
        </CharString>
        <CharString name="ohungarumlaut">
          -2 callgsubr
          167 591 -57 callgsubr
          -107 -85 callgsubr
        </CharString>
        <CharString name="omacron">
          -33 callgsubr
          79 82 3 callsubr
          143 617 -43 callsubr
          153 -711 -104 callsubr
        </CharString>
        <CharString name="one">
          -88 0 98 436 74 78 -20 hstem
          255 120 vstem
          88 hmoveto
          440 98 -153 588 -58 hlineto
          -69 -39 -101 -33 -60 -6 rrcurveto
          -74 168 -436 -167 vlineto
          endchar
        </CharString>
        <CharString name="oneeighth">
          60 callsubr
          -32 23 callsubr
          324 76 callsubr
          hintmask 1101101100000000
          109 -12 rmoveto
          83 hlineto
          546 710 rlineto
          -83 hlineto
          -607 35 callsubr
          hintmask 1101010110010000
          98 callsubr
          614 -409 31 callsubr
          hintmask 1110101101100000
          -15 callsubr
          hintmask 1101101110000000
          96 callgsubr
          hintmask 1101010110010000
          -59 38 -49 92 vhcurveto
          hintmask 1110101101100000
          -14 callgsubr
          hintmask 1101101110010000
          -22 callsubr
        </CharString>
        <CharString name="onehalf">
          190 0 68 -59 -21 315 64 -38 23 callsubr
          319 255 -251 76 97 76 1 callgsubr
          hintmask 0101101100000000
          103 -12 -20 callgsubr
          -601 -369 rmoveto
          236 68 -76 hlineto
          hintmask 1001010100000000
          289 -39 vlineto
          hintmask 1001101100000000
          56 callsubr
          hintmask 1001010110000000
          98 callsubr
          479 -397 75 callsubr
          21 15 19 13 rrcurveto
          hintmask 1010101101100000
          49 35 61 43 73 vvcurveto
          44 -25 63 -94 -70 -60 -31 -75 -7 1 -11 1 -8 67 callsubr
          -22 -18 -14 -3 -14 -9 -12 vhcurveto
          hintmask 1001101110000000
          -15 -22 -25 -18 -28 -21 rrcurveto
          -47 -36 -50 -37 -64 vvcurveto
          endchar
        </CharString>
        <CharString name="onequarter">
          190 9 -21 87 64 190 23 callsubr
          455 76 hintmask 11110111
          103 -12 -20 callgsubr
          -601 -369 rmoveto
          236 68 -76 hlineto
          hintmask 11101011
          289 -39 vlineto
          hintmask 11110111
          56 callsubr
          hintmask 11101011
          98 callsubr
          615 -396 7 callgsubr
        </CharString>
        <CharString name="ordfeminine">
          -274 389 61 94 55 77 60 hstemhm
          28 80 -64 77 113 77 hintmask 11110100
          333 452 rmoveto
          -10 -12 6 16 hvcurveto
          160 vlineto
          65 -42 37 -90 vhcurveto
          hintmask 11101100
          -80 -55 -34 -59 -5 0 -4 1 -5 hvcurveto
          76 10 hlineto
          17 13 20 45 44 11 -21 -27 vhcurveto
          -29 vlineto
          hintmask 11110100
          -121 -85 -25 -91 -81 67 -13 39 50 31 17 26 22 hvcurveto
          4 hlineto
          -26 8 24 -16 33 hhcurveto
          23 17 5 4 8 hvcurveto
          53 vlineto
          -120 75 rmoveto
          -45 -30 -32 -48 -32 -16 15 25 44 57 10 69 vhcurveto
          endchar
        </CharString>
        <CharString name="ordmasculine">
          -279 389 63 222 62 hstem
          21 81 162 81 vstem
          183 389 rmoveto
          108 54 55 119 119 -54 54 -108 -107 -55 -54 -119 -119 55 -55 107 hvcurveto
          63 vmoveto
          -58 -23 36 72 hvcurveto
          7 vlineto
          71 23 36 58 58 23 -37 -73 vhcurveto
          -4 vlineto
          -72 -23 -36 -58 vhcurveto
          endchar
        </CharString>
        <CharString name="orthogonal">
          335 0 81 hstem
          177 84 vstem
          177 hmoveto
          625 81 -541 544 -84 hlineto
          endchar
        </CharString>
        <CharString name="oslash">
          -33 -33 callgsubr
          hstem
          46 124 271 123 vstem
          45 -49 -58 callsubr
        </CharString>
        <CharString name="oslashacute">
          -33 -33 callgsubr
          53 132 hstem
          46 124 271 123 vstem
          258 -64 callsubr
          -294 -772 -58 callsubr
        </CharString>
        <CharString name="otilde">
          -33 callgsubr
          69 81 -46 81 99 callgsubr
          -32 -4 callsubr
          -31 124 hintmask 00000000
          hintmask 11100101
          129 607 rmoveto
          69 hlineto
          hintmask 11010101
          -63 callsubr
          hintmask 11101010
          -50 callgsubr
          hintmask 11011010
          -71 callgsubr
          hintmask 11100110
          -49 callgsubr
          82 callgsubr
          167 -619 -104 callsubr
        </CharString>
        <CharString name="p">
          74 callgsubr
          -12 -20 53 callgsubr
          242 124 hintmask 11101100
          47 callsubr
          192 -81 84 -129 -67 -59 -27 -55 -35 hvcurveto
          -6 hlineto
          hintmask 11011100
          46 callsubr
          240 -435 rmoveto
          -85 -35 60 106 hvcurveto
          12 vlineto
          hintmask 11101100
          107 36 59 84 89 33 -52 -114 vhcurveto
          -13 vlineto
          hintmask 11011100
          -113 -33 -52 -89 vhcurveto
          endchar
        </CharString>
        <CharString name="paragraph">
          -95 625 61 hstem
          233 84 66 84 vstem
          233 -168 rmoveto
          84 793 66 -793 84 793 61 61 -266 hlineto
          -136 -108 -58 -160 -145 105 -70 110 hvcurveto
          endchar
        </CharString>
        <CharString name="parenleft">
          -311 736 -20 hstem
          54 113 vstem
          225 -157 rmoveto
          78 hlineto
          -77 122 -59 169 157 vvcurveto
          156 59 167 77 122 vhcurveto
          -78 hlineto
          -110 -122 -61 -159 -164 vvcurveto
          -165 61 -159 110 -124 vhcurveto
          endchar
        </CharString>
        <CharString name="parenright">
          -311 736 -20 hstem
          175 113 vstem
          39 -157 rmoveto
          78 hlineto
          110 123 61 158 164 vvcurveto
          165 -61 160 -110 123 vhcurveto
          -78 hlineto
          77 -121 59 -166 -155 vvcurveto
          -158 -59 -170 -77 -123 vhcurveto
          endchar
        </CharString>
        <CharString name="partialdiff">
          -150 -12 92 282 87 197 89 hstem
          39 113 193 107 vstem
          216 -12 rmoveto
          151 85 148 247 250 -115 102 -116 -54 -39 -13 -16 -30 hvcurveto
          -94 vlineto
          18 25 34 16 47 hhcurveto
          81 60 -100 -129 -9 0 -19 -2 -6 hvcurveto
          -4 hlineto
          24 -12 -38 42 -62 hhcurveto
          -97 -91 -93 -152 -116 60 -100 117 hvcurveto
          7 92 rmoveto
          -45 -26 49 72 87 41 74 54 49 31 -42 -34 9 hvcurveto
          -106 -7 -42 -100 -64 hhcurveto
          endchar
        </CharString>
        <CharString name="percent">
          245 70 callsubr
          51 95 134 94 142 94 135 94 hintmask 1001101111000000
          213 337 rmoveto
          101 60 41 139 139 -60 42 -101 -101 -61 -42 -139 -138 61 -42 101 hvcurveto
          hintmask 0101011111000000
          -65 -337 rmoveto
          94 hlineto
          503 686 rlineto
          -96 hlineto
          -436 -276 rmoveto
          -55 -12 40 61 hvcurveto
          13 vlineto
          hintmask 1001101111000000
          61 12 40 55 54 13 -40 -61 vhcurveto
          -13 vlineto
          hintmask 0101011111000000
          -61 -13 -40 -54 vhcurveto
          hintmask 1010101111000000
          464 -422 rmoveto
          101 61 41 139 139 -61 42 -101 -101 -60 -42 -139 -138 60 -42 101 hvcurveto
          73 vmoveto
          -54 -13 41 61 hvcurveto
          12 vlineto
          61 13 40 54 55 13 -40 -61 vhcurveto
          -12 vlineto
          -61 -13 -41 -55 vhcurveto
          endchar
        </CharString>
        <CharString name="period">
          -366 0 127 hstem
          77 125 vstem
          77 hmoveto
          125 127 -125 hlineto
          endchar
        </CharString>
        <CharString name="periodcentered">
          -311 294 127 hstem
          103 125 vstem
          103 294 -5 callgsubr
          endchar
        </CharString>
        <CharString name="perthousand">
          356 70 callsubr
          18 95 96 94 72 94 96 95 36 94 96 95 1 callgsubr
          hintmask 0101101100000000
          161 337 rmoveto
          89 53 41 139 139 -53 42 -89 -90 -53 -42 -139 -138 53 -42 90 hvcurveto
          -50 -337 rmoveto
          79 hlineto
          hintmask 0001011100000000
          377 686 rlineto
          -81 hlineto
          -325 -276 rmoveto
          -40 -8 40 61 hvcurveto
          13 vlineto
          hintmask 0000101100000000
          61 8 40 40 39 9 -40 -61 vhcurveto
          -13 vlineto
          hintmask 0001011100000000
          -61 -9 -40 -39 vhcurveto
          hintmask 1010000011110000
          356 -422 rmoveto
          49 callsubr
          321 hmoveto
          49 callsubr
          -321 73 rmoveto
          41 callsubr
          321 hmoveto
          41 callsubr
          endchar
        </CharString>
        <CharString name="peseta">
          450 -12 94 -61 -21 62 24 159 109 74 98 -83 95 39 109 hstemhm
          71 127 307 117 49 110 -101 118 136 111 -105 118 hintmask 1001101110101000
          618 -12 rmoveto
          41 30 13 3 6 hvcurveto
          hintmask 0011101110101000
          58 vlineto
          hintmask 1001011110101000
          -46 29 57 -28 82 hhcurveto
          112 83 44 123 hvcurveto
          205 -260 -69 100 vvcurveto
          28 18 24 46 vhcurveto
          hintmask 1001011110110000
          48 24 -26 -40 hvcurveto
          -4 110 vlineto
          1 7 0 8 7 vvcurveto
          85 -71 58 -106 vhcurveto
          hintmask 0101101110101000
          -29 -28 -4 -8 -25 hvcurveto
          -164 147 -93 hlineto
          -21 -147 rlineto
          -32 hlineto
          99 -19 -73 61 -127 hhcurveto
          -186 -686 127 245 53 hlineto
          135 79 70 113 14 hvcurveto
          26 -309 hlineto
          hintmask 1001101110101000
          -65 27 -66 86 vhcurveto
          -420 366 rmoveto
          223 52 vlineto
          69 37 -41 -69 -70 -39 -43 -67 hvcurveto
          hintmask 1001101111001000
          617 -272 rmoveto
          -44 -41 20 56 -1 hvcurveto
          8 vlineto
          hintmask 0011101111001000
          -109 hlineto
          -1 -5 0 -4 -7 vvcurveto
          -23 4 -21 9 -20 vhcurveto
          -19 hlineto
          -28 -15 16 29 hvcurveto
          297 vlineto
          hintmask 1001101110101000
          65 hlineto
          -5 -14 -2 -16 -17 -198 260 70 -113 vvcurveto
          hintmask 1001101111001000
          -42 -37 -16 -36 vhcurveto
          endchar
        </CharString>
        <CharString name="pi">
          96 92 callgsubr
          hstem
          180 120 178 120 vstem
          99 hmoveto
          120 hlineto
          40 84 32 222 9 122 rrcurveto
          178 -281 hlineto
          -80 8 -51 11 -16 vhcurveto
          117 hlineto
          -10 30 -6 44 82 vvcurveto
          272 102 vlineto
          10 98 rlineto
          -486 hlineto
          -104 -59 -11 -19 -31 hvcurveto
          15 -81 rlineto
          9 28 32 4 75 hhcurveto
          -4 -122 -35 -205 -42 -101 rrcurveto
          endchar
        </CharString>
        <CharString name="plus">
          -60 21 -21 206 98 hstem
          243 97 vstem
          243 hmoveto
          97 206 188 98 -188 207 -97 -207 -187 -98 187 hlineto
          endchar
        </CharString>
        <CharString name="plusminus">
          -95 0 97 251 97 hstem
          226 97 vstem
          226 141 rmoveto
          97 207 188 97 -188 207 -97 -207 -187 -97 187 hlineto
          -187 -348 rmoveto
          97 callsubr
          endchar
        </CharString>
        <CharString name="product">
          179 614 109 hstem
          133 128 300 127 vstem
          133 -128 rmoveto
          128 742 300 -742 127 742 94 109 -741 -109 92 hlineto
          endchar
        </CharString>
        <CharString name="q">
          74 callgsubr
          -12 -20 59 callgsubr
          hintmask 11101100
          402 -173 rmoveto
          120 hlineto
          hintmask 11011100
          699 -99 vlineto
          hintmask 11101100
          -10 -70 rlineto
          -6 hlineto
          55 -35 -59 27 -67 hhcurveto
          -129 -81 -84 -192 -189 85 -85 117 72 54 24 49 32 hvcurveto
          6 hlineto
          -120 30 rmoveto
          -90 -32 52 113 hvcurveto
          13 vlineto
          114 33 52 89 84 36 -59 -107 vhcurveto
          -12 vlineto
          -106 -35 -60 -85 vhcurveto
          endchar
        </CharString>
        <CharString name="question">
          0 127 465 106 hstemhm
          55 125 48 124 -118 112 53 129 hintmask 00000000
          hintmask 11101100
          234 191 rmoveto
          112 33 hlineto
          119 182 -8 185 vvcurveto
          115 -89 63 -137 -166 -81 -92 -112 -17 4 -18 0 115 callgsubr
          0 -1 11 16 vvcurveto
          37 13 69 100 97 9 -60 -28 vhcurveto
          -107 -165 2 -160 vvcurveto
          hintmask 11110100
          -6 -239 rmoveto
          44 callsubr
          endchar
        </CharString>
        <CharString name="questiondown">
          -33 -172 106 465 127 hstemhm
          78 129 46 125 -118 112 54 124 hintmask 11110100
          253 399 -5 callgsubr
          51 -698 rmoveto
          166 80 92 112 17 -3 18 0 hvcurveto
          -122 hlineto
          0 1 -11 -16 vvcurveto
          -37 -13 -69 -100 -97 -9 60 28 vhcurveto
          hintmask 11101100
          107 165 -2 160 vvcurveto
          48 -112 -33 vlineto
          -119 -182 8 -185 vvcurveto
          hintmask 11110100
          -115 89 -63 137 vhcurveto
          endchar
        </CharString>
        <CharString name="quotedbl">
          -211 407 279 hstem
          51 132 67 132 vstem
          74 407 rmoveto
          86 hlineto
          23 68 callsubr
          223 -132 rmoveto
          86 hlineto
          22 68 callsubr
          endchar
        </CharString>
        <CharString name="quotedblbase">
          -202 0 127 hstem
          60 125 73 125 vstem
          60 -148 rmoveto
          -35 callgsubr
          148 -148 rmoveto
          -35 callgsubr
          endchar
        </CharString>
        <CharString name="quotedblleft">
          -202 411 127 148 -20 hstem
          59 125 73 125 vstem
          59 411 64 callsubr
          198 -116 64 callsubr
          endchar
        </CharString>
        <CharString name="quotedblright">
          -202 559 127 hstem
          60 125 73 125 vstem
          60 411 rmoveto
          -35 callgsubr
          148 -148 rmoveto
          -35 callgsubr
          endchar
        </CharString>
        <CharString name="quoteleft">
          -385 411 127 148 -20 hstem
          69 124 vstem
          69 411 rmoveto
          124 127 -49 hlineto
          49 148 rlineto
          -65 hlineto
          -59 -159 rlineto
          endchar
        </CharString>
        <CharString name="quotereversed">
          -385 559 127 hstem
          69 125 vstem
          129 414 rmoveto
          65 hlineto
          -50 145 rlineto
          50 127 -125 -116 hlineto
          endchar
        </CharString>
        <CharString name="quoteright">
          -385 559 127 hstem
          65 125 vstem
          65 411 rmoveto
          -35 callgsubr
          endchar
        </CharString>
        <CharString name="quotesinglbase">
          -385 0 127 hstem
          67 125 vstem
          67 -148 rmoveto
          -35 callgsubr
          endchar
        </CharString>
        <CharString name="quotesingle">
          -422 407 279 hstemhm
          48 132 hintmask 00000000
          hintmask 11000000
          71 407 rmoveto
          86 hlineto
          23 68 callsubr
          endchar
        </CharString>
        <CharString name="r">
          -274 21 86 callsubr
          hintmask 11001000
          70 hmoveto
          -24 callsubr
          hintmask 10011000
          113 vlineto
          hintmask 11001000
          -24 callgsubr
          hintmask 10101000
          -11 83 rlineto
          -99 hlineto
          endchar
        </CharString>
        <CharString name="racute">
          -274 21 3 callgsubr
          82 132 53 callgsubr
          hintmask 11001100
          137 -64 callsubr
          -148 -723 -40 callgsubr
        </CharString>
        <CharString name="radical">
          -95 -148 1005 hstem
          30 518 vstem
          283 -148 -12 callgsubr
          162 1005 rlineto
          -76 hlineto
          -133 -853 -9 27 -9 29 -11 30 rlinecurve
          -111 304 -169 -71 25 -73 65 25 rlineto
          endchar
        </CharString>
        <CharString name="rcaron">
          -274 21 3 callgsubr
          79 135 53 callgsubr
          hintmask 11001100
          131 588 -100 callgsubr
          45 -723 -40 callgsubr
        </CharString>
        <CharString name="rcommaaccent">
          -274 -142 96 67 -12 callsubr
          2 -756 rmoveto
          -65 callgsubr
        </CharString>
        <CharString name="registered">
          93 -12 57 250 64 129 62 91 57 hstem
          13 59 149 75 169 76 123 -36 callgsubr
          -147 93 rmoveto
          75 157 103 hlineto
          79 -157 rlineto
          80 hlineto
          -87 170 rlineto
          47 21 23 42 54 vvcurveto
          74 -43 51 -85 vhcurveto
          -192 hlineto
          75 -191 rmoveto
          129 107 vlineto
          39 23 -22 -41 -42 -26 -24 -36 hvcurveto
          endchar
        </CharString>
        <CharString name="revlogicalnot">
          -60 358 96 hstem
          47 93 vstem
          47 194 rmoveto
          93 164 397 96 -490 hlineto
          endchar
        </CharString>
        <CharString name="ring">
          -311 559 53 93 53 hstem
          68 53 92 53 vstem
          167 559 -70 callgsubr
          endchar
        </CharString>
        <CharString name="s">
          -107 -12 39 callsubr
          194 118 -106 121 hintmask 00000000
          hintmask 11110010
          269 -12 rmoveto
          133 99 44 123 hvcurveto
          hintmask 11101010
          -32 callsubr
          hintmask 11101100
          -74 callgsubr
          hintmask 11101010
          -40 callsubr
          hintmask 11110010
          -62 callgsubr
          endchar
        </CharString>
        <CharString name="sacute">
          -107 -12 -53 callsubr
          53 132 -6 callsubr
          hintmask 11110101
          64 callgsubr
          hintmask 11111001
          -32 -735 -79 callsubr
        </CharString>
        <CharString name="sacute.loclPLK">
          -107 -12 -53 callsubr
          53 131 -6 callsubr
          hintmask 11110101
          220 591 -57 callsubr
          hintmask 11111001
          21 -734 -79 callsubr
        </CharString>
        <CharString name="scaron">
          -107 -12 -53 callsubr
          50 135 -6 callsubr
          hintmask 11110101
          214 588 -100 callgsubr
          hintmask 11111001
          161 -735 -79 callsubr
        </CharString>
        <CharString name="scedilla">
          -107 52 callgsubr
          43 24 92 -72 -21 22 -21 231.17 101.65 120.18001 95 hstemhm
          41 118 -106 121 126 95 -27 118 -106 121 hintmask 1000011101001000
          501 155 rmoveto
          -32 callsubr
          hintmask 1000011101010000
          -74 callgsubr
          hintmask 1001001101001000
          -40 callsubr
          hintmask 1001001110001000
          -59 -55 20 56 -1 hvcurveto
          8 -117 vlineto
          -1 -1 -6 -9 vvcurveto
          -83 62 -65 123 -12 vhcurveto
          hintmask 1010011101100000
          -11 -67 -25 callsubr
          -93 hlineto
          hintmask 0100011101001000
          -49 vlineto
          hintmask 1010011101100000
          -5 29 39 -3 33 hhcurveto
          10 callsubr
          hintmask 1000101101100000
          4 23 rlineto
          hintmask 1000011101001000
          115 7 83 47 112 vvcurveto
          endchar
        </CharString>
        <CharString name="scircumflex">
          -107 -12 -53 callsubr
          50 135 -63 63 -6 callsubr
          hintmask 1111001010000000
          108 34 callsubr
          hintmask 1110101010000000
          57 72 rlineto
          hintmask 1111010010000000
          -102 callsubr
          55 -735 rmoveto
          133 99 44 123 hvcurveto
          hintmask 1111001010000000
          -32 callsubr
          hintmask 1111001100000000
          -74 callgsubr
          hintmask 1111001010000000
          -40 callsubr
          hintmask 1111010010000000
          -62 callgsubr
          endchar
        </CharString>
        <CharString name="scommaaccent">
          -107 -142 96 34 36 callsubr
          120 40 -58 callgsubr
          -59 -218 rmoveto
          hintmask 1111011010000000
          -65 callgsubr
        </CharString>
        <CharString name="second">
          -208 509 177 hstem
          50 334 vstem
          50 509 72 callsubr
          -119 hlineto
          148 -177 72 callsubr
          -120 hlineto
          endchar
        </CharString>
        <CharString name="section">
          -88 -182 94 690 96 hstemhm
          42 118 -102 123 194 123 -102 118 hintmask 00000000
          hintmask 11011000
          271 -182 rmoveto
          135 92 54 103 60 -30 41 -42 30 hvcurveto
          hintmask 11010100
          52 31 36 47 56 198 -333 -10 110 vvcurveto
          32 26 32 71 vhcurveto
          hintmask 11011000
          65 32 -26 -38 hvcurveto
          -5 122 vlineto
          1 1 11 10 vvcurveto
          85 -87 58 -126 -135 -92 -54 -103 -61 29 -41 43 -29 vhcurveto
          hintmask 11101000
          -52 -31 -36 -47 -56 -198 333 10 -111 vvcurveto
          -31 -26 -34 -71 vhcurveto
          hintmask 11010100
          -66 -31 26 41 hvcurveto
          4 -122 vlineto
          -1 -1 -11 -10 vvcurveto
          hintmask 11011000
          -85 87 -58 126 vhcurveto
          hintmask 11100100
          78 331 rmoveto
          -92 37 -97 30 85 vvcurveto
          26 19 23 27 16 vhcurveto
          93 -39 97 -27 -85 vvcurveto
          -27 -19 -23 -28 -16 vhcurveto
          endchar
        </CharString>
        <CharString name="semicolon">
          -330 0 127 272 127 hstem
          94 125 vstem
          94 399 -5 callgsubr
          -674 vmoveto
          -35 callgsubr
          endchar
        </CharString>
        <CharString name="seven">
          -88 21 -21 577 109 hstem
          137 130 vstem
          137 hmoveto
          131 hlineto
          -1 24 0 8 19 vvcurveto
          211 144 208 115 138 vhcurveto
          78 -490 -109 344 vlineto
          -119 -141 -124 -210 -226 vvcurveto
          endchar
        </CharString>
        <CharString name="seveneighths">
          60 callsubr
          257 68 12 -20 hstemhm
          63 262 -211 80 321 76 callsubr
          hintmask 1111001100100000
          86 -12 rmoveto
          82 hlineto
          hintmask 1110101100100000
          546 710 rlineto
          -82 hlineto
          -518 -373 rmoveto
          81 hlineto
          -1 15 0 9 10 vvcurveto
          hintmask 1111001100100000
          103 73 104 58 69 vhcurveto
          hintmask 1111010100100000
          51 -262 -68 170 vlineto
          hintmask 1110101100100000
          -69 -82 -50 -101 -110 vvcurveto
          hintmask 1111001100100000
          531 -337 31 callsubr
          hintmask 1111001011000000
          -15 callsubr
          hintmask 1111001100100000
          96 callgsubr
          -59 38 -49 92 vhcurveto
          hintmask 1111001011000000
          -14 callgsubr
          hintmask 1111001100100000
          -22 callsubr
        </CharString>
        <CharString name="six">
          -88 -12 98 258 96 160 98 hstemhm
          41 123 215 122 -101 123 hintmask 11110100
          293 -12 rmoveto
          133 97 87 139 129 -65 97 -143 -82 -55 -45 -17 -14 hvcurveto
          137 2 17 85 100 hhcurveto
          hintmask 11111000
          67 29 -42 -74 hvcurveto
          122 hlineto
          121 -63 93 -150 -157 -90 -91 -284 vhcurveto
          hintmask 11110100
          -254 95 -81 157 vhcurveto
          -6 98 rmoveto
          -78 -36 56 72 76 36 54 78 77 36 -54 -75 -72 -36 -57 -77 hvcurveto
          endchar
        </CharString>
        <CharString name="slash">
          113 callgsubr
          1 -49 rmoveto
          87 hlineto
          189 784 rlineto
          -86 hlineto
          endchar
        </CharString>
        <CharString name="space">
          -366 endchar
        </CharString>
        <CharString name="sterling">
          -88 0 101 189 98 212 54 callgsubr
          189 rlineto
          160 98 -159 125 26 callgsubr
          -111 -81 -98 81 -189 -67 vlineto
          endchar
        </CharString>
        <CharString name="summation">
          69 -128 112 630 109 hstem
          59 631 vstem
          59 -128 rmoveto
          631 112 -470 4 hlineto
          289 327 -266 295 rlineto
          4 428 109 -602 -98 vlineto
          291 -326 -301 -340 rlineto
          endchar
        </CharString>
        <CharString name="t">
          -330 -12 98 342 98 hstem
          77 120 vstem
          -43 callgsubr
          endchar
        </CharString>
        <CharString name="tbar">
          -330 -12 98 171 68 103 98 hstem
          77 120 vstem
          203 -12 71 callgsubr
          126 90 68 -90 103 90 98 -90 147 -96 vlineto
          -22 -147 rlineto
          -66 -98 64 -103 -64 -68 64 -138 hlineto
          107 callgsubr
          endchar
        </CharString>
        <CharString name="tcaron">
          -201 -12 98 342 98 -55 55 58 115 hstemhm
          77 120 130 120 hintmask 00000000
          hintmask 10111100
          327 471 rmoveto
          63 hlineto
          57 124 rlineto
          43 callsubr
          -172 -596 71 callgsubr
          hintmask 11011100
          297 90 98 -90 147 -96 vlineto
          -22 -147 rlineto
          -66 -98 64 -309 hlineto
          hintmask 10111100
          107 callgsubr
          endchar
        </CharString>
        <CharString name="thorn">
          74 callgsubr
          194 -20 hstem
          70 120 242 124 vstem
          47 callsubr
          191 -82 85 -120 -72 -54 -24 -49 -32 hvcurveto
          -6 267 -48 callgsubr
          240 -641 rmoveto
          -85 -35 60 106 hvcurveto
          12 vlineto
          107 36 59 66 callgsubr
        </CharString>
        <CharString name="three">
          -88 -12 98 214 98 202 98 hstemhm
          34 122 -107 121 211 124 -109 123 hintmask 00000000
          hintmask 11110010
          280 -12 rmoveto
          140 99 74 122 91 -53 55 -71 22 hvcurveto
          4 vlineto
          hintmask 11101100
          62 29 48 44 81 vvcurveto
          122 -93 66 -136 -133 -94 -74 -114 vhcurveto
          -25 121 16 vlineto
          67 44 32 64 59 44 -29 -69 -70 -50 -34 -60 vhcurveto
          -61 -98 58 hlineto
          hintmask 11110010
          67 61 -21 -86 -74 -49 -33 -71 -77 -43 37 68 hvcurveto
          18 -122 -15 vlineto
          -125 87 -81 159 vhcurveto
          endchar
        </CharString>
        <CharString name="threeeighths">
          60 callsubr
          -35 64 93 64 88 63 hstemhm
          37 51 callgsubr
          236 76 callsubr
          1 callgsubr
          hintmask 1101111000110010
          168 326 77 callgsubr
          hintmask 1101110110010010
          43 -23 28 -37 14 vhcurveto
          4 vlineto
          hintmask 1101110101010010
          32 16 21 -28 callsubr
          15 27 26 19 -13 -30 -31 -21 -14 -27 vhcurveto
          hintmask 1101110110010010
          -33 -64 hlineto
          hintmask 1101111000110010
          16 callgsubr
          47 -43 84 vhcurveto
          -65 -338 -20 callgsubr
          13 -710 31 callsubr
          hintmask 1110110100101100
          -15 callsubr
          hintmask 1101110100110010
          96 callgsubr
          hintmask 1101111000110010
          -59 38 -49 92 vhcurveto
          hintmask 1110110100101100
          -14 callgsubr
          hintmask 1101110100110010
          -22 callsubr
        </CharString>
        <CharString name="threequarters">
          190 9 -21 87 64 187 64 93 64 88 63 hstemhm
          40 76 -69 76 11 104 -23 77 -70 77 364 76 hintmask 1111110001100000
          171 326 77 callgsubr
          hintmask 1111110100100000
          43 -24 28 -37 14 vhcurveto
          4 vlineto
          hintmask 1111101010100000
          32 16 22 -28 callsubr
          15 27 26 19 -13 -30 -31 -21 -14 -27 vhcurveto
          hintmask 1111110100100000
          -33 -64 hlineto
          hintmask 1111110001100000
          16 callgsubr
          46 -43 85 vhcurveto
          -68 -338 -20 callgsubr
          14 -697 7 callgsubr
        </CharString>
        <CharString name="tilde">
          -311 607 52 callsubr
          0 -4 callsubr
          hintmask 10110000
          607 vmoveto
          69 hlineto
          hintmask 01110000
          -63 callsubr
          hintmask 10110000
          -50 callgsubr
          hintmask 01110000
          -71 callgsubr
          hintmask 10110000
          -49 callgsubr
          -50 callsubr
          -49 callsubr
          endchar
        </CharString>
        <CharString name="trademark">
          356 280 99 238 69 hstem
          219 73 186 67 286 73 vstem
          219 281 rmoveto
          73 336 139 69 -352 -69 140 hlineto
          259 -337 rmoveto
          67 311 3 hlineto
          105 -311 rlineto
          69 hlineto
          103 306 rlineto
          6 -306 73 406 -109 hlineto
          -102 -307 rlineto
          -4 hlineto
          -100 307 rlineto
          -111 hlineto
          endchar
        </CharString>
        <CharString name="two">
          -88 0 109 489 100 hstem
          49 123 220 122 vstem
          42 hmoveto
          476 109 -330 hlineto
          5 10 8 10 11 11 rrcurveto
          86 86 216 85 186 vvcurveto
          83 -45 118 -176 -131 -113 -61 -147 -24 4 -16 0 vhcurveto
          119 41 hlineto
          68 37 39 78 79 26 -50 -43 -32 -10 -31 -18 -26 vhcurveto
          -85 -124 -237 -70 -188 vvcurveto
          endchar
        </CharString>
        <CharString name="u">
          -12 106 callgsubr
          -48 callsubr
          hintmask 10111000
          237 -12 -66 callsubr
          hintmask 01111000
          -81 callsubr
          hintmask 10111000
          -101 callsubr
          vhcurveto
          endchar
        </CharString>
        <CharString name="uacute">
          -15 callgsubr
          247 -64 callsubr
          -91 -735 -86 callsubr
        </CharString>
        <CharString name="ubreve">
          -23 callgsubr
          87 85 callgsubr
          hstemhm
          -48 callsubr
          hintmask 10101110
          294 593 -72 callsubr
          hintmask 10110110
          -51 callgsubr
          hintmask 10101110
          -89 callgsubr
          -57 -605 -66 callsubr
          hintmask 01101110
          -81 callsubr
          hintmask 10101110
          -101 callsubr
          vhcurveto
          endchar
        </CharString>
        <CharString name="ucircumflex">
          -23 callgsubr
          82 135 -63 63 hstemhm
          -48 callsubr
          hintmask 10110110
          135 34 callsubr
          hintmask 10101110
          57 72 rlineto
          hintmask 10110110
          -102 callsubr
          -4 102 callsubr
          hintmask 01110110
          -81 callsubr
          hintmask 10110110
          -101 callsubr
          vhcurveto
          endchar
        </CharString>
        <CharString name="udieresis">
          -23 callgsubr
          107 110 8 callsubr
          hintmask 00000000
          hintmask 10110110
          141 613 -96 callgsubr
          hintmask 10111001
          -106 102 callsubr
          hintmask 01111001
          -81 callsubr
          hintmask 10111001
          -101 callsubr
          vhcurveto
          endchar
        </CharString>
        <CharString name="ugrave">
          -15 callgsubr
          247 13 callgsubr
          98 -732 -86 callsubr
        </CharString>
        <CharString name="uhorn">
          -23 callgsubr
          90 127 hstemhm
          -48 callsubr
          -26 145 hintmask 00000000
          hintmask 10111010
          496 723 -34 callsubr
          hintmask 10111100
          -12 -35 -28 -22 -43 -13 rrcurveto
          -75 -306 hlineto
          -101 callsubr
          76 56 33 49 37 vhcurveto
          7 hlineto
          hintmask 01111100
          10 -70 rlineto
          99 475 hlineto
          hintmask 10111010
          27 callsubr
          endchar
        </CharString>
        <CharString name="uhungarumlaut">
          -15 callgsubr
          166 591 -57 callgsubr
          -165 -735 -86 callsubr
        </CharString>
        <CharString name="umacron">
          -23 callgsubr
          111 82 hstemhm
          -48 callsubr
          hintmask 10111100
          142 617 -43 callsubr
          95 -711 -86 callsubr
        </CharString>
        <CharString name="underscore">
          -88 -148 83 hstem
          0 556 vstem
          -148 vmoveto
          556 83 -556 hlineto
          endchar
        </CharString>
        <CharString name="underscoredbl">
          -92 -279 78 58 78 hstem
          0 552 vstem
          -143 vmoveto
          552 78 -552 hlineto
          -214 vmoveto
          552 78 -552 hlineto
          endchar
        </CharString>
        <CharString name="uni00A0">
          -366 endchar
        </CharString>
        <CharString name="uni00AD">
          40 callgsubr
        </CharString>
        <CharString name="uni00B2">
          -311 331 68 235 64 hstemhm
          41 255 -252 77 97 76 hintmask 00000000
          hintmask 11100000
          41 331 75 callsubr
          20 15 19 14 rrcurveto
          hintmask 11011000
          50 34 61 41 75 vvcurveto
          44 -25 63 -94 -70 -61 -31 -74 -15 3 -12 0 67 callsubr
          -22 -18 -15 -5 -15 -9 -12 vhcurveto
          hintmask 11100000
          -15 -21 -25 -18 -26 -20 rrcurveto
          -47 -36 -50 -37 -64 vvcurveto
          endchar
        </CharString>
        <CharString name="uni00B3">
          -311 326 64 93 64 88 63 hstemhm
          37 51 callgsubr
          hintmask 00000000
          hintmask 11110001
          168 326 77 callgsubr
          hintmask 11101100
          43 -23 28 -37 14 vhcurveto
          4 vlineto
          hintmask 11101010
          32 16 21 -28 callsubr
          15 27 26 19 -13 -30 -31 -21 -14 -27 vhcurveto
          hintmask 11101100
          -33 -64 hlineto
          hintmask 11110001
          16 callgsubr
          47 -43 84 vhcurveto
          endchar
        </CharString>
        <CharString name="uni00B5">
          -41 callgsubr
        </CharString>
        <CharString name="uni00B9">
          -311 329 69 199 49 -49 89 hstemhm
          138 76 hintmask 10110000
          54 329 rmoveto
          236 69 -76 288 -39 hlineto
          hintmask 11010000
          56 callsubr
          hintmask 10110000
          -49 84 -199 -84 vlineto
          endchar
        </CharString>
        <CharString name="uni0162">
          -33 52 callgsubr
          43 55 -21 576 110 hstemhm
          242 127 -31 95 hintmask 10111100
          369 hmoveto
          7 callsubr
          -576 vlineto
          hintmask 10111010
          23 hlineto
          -12 -77 -25 callsubr
          -93 hlineto
          hintmask 01111100
          -49 vlineto
          hintmask 10111010
          -5 29 39 -3 33 hhcurveto
          10 callsubr
          hintmask 10111100
          5 34 rlineto
          endchar
        </CharString>
        <CharString name="uni0163">
          -330 52 callgsubr
          43 22 98 -77 -21 440 98 hstemhm
          77 120 3 95 hintmask 00000000
          hintmask 10101110
          199 -34 rmoveto
          hintmask 10001110
          3 22 rlineto
          1 hlineto
          63 callgsubr
          hintmask 10010110
          82 -47 vlineto
          -29 -14 16 29 hvcurveto
          297 90 98 -90 147 -96 vlineto
          -22 -147 rlineto
          -66 -98 64 -309 hlineto
          hintmask 10101110
          -44 13 -44 38 -24 vhcurveto
          hintmask 10101101
          -13 -84 -25 callsubr
          -93 hlineto
          hintmask 01001110
          -49 vlineto
          hintmask 10001101
          -5 29 39 -3 33 hhcurveto
          52 78 14 67 hvcurveto
          hintmask 10101110
          46 -44 18 -52 3 vhcurveto
          endchar
        </CharString>
        <CharString name="uni018F">
          114 -12 105 183 100 218 104 hstem
          44 133 400 132 vstem
          375 -12 rmoveto
          226 108 110 241 247 -114 112 -226 -191 -134 -80 -169 hvcurveto
          125 hlineto
          103 85 42 109 141 66 -71 -147 7 vhcurveto
          -533 -53 hlineto
          -236 117 -99 214 vhcurveto
          4 105 rmoveto
          -120 -82 51 132 hvcurveto
          398 hlineto
          -129 -14 -58 -54 -124 hhcurveto
          endchar
        </CharString>
        <CharString name="uni019D">
          103 callgsubr
          123 334 123 vstem
          66 -182 rmoveto
          99 29 68 66 hvcurveto
          450 vlineto
          20 -2 36 8 vvcurveto
          5 3 4 -7 18 -30 17 -25 rlinecurve
          295 -407 rlineto
          120 686 -123 -408 hlineto
          -72 callgsubr
          -726 hlineto
          -29 -15 -16 -29 vhcurveto
          -49 -82 hlineto
          -8 21 38 -7 29 hhcurveto
          endchar
        </CharString>
        <CharString name="uni01C4">
          689 55 callsubr
          47 96 callsubr
          348 131 vstem
          974 733 -100 callgsubr
          -797 -868 rmoveto
          -66 callgsubr
          -274 hlineto
          670 -686 rmoveto
          -75 callsubr
          -542 48 -67 callsubr
          endchar
        </CharString>
        <CharString name="uni01C5">
          87 callgsubr
          -98 135 0 callgsubr
          348 131 hintmask 00000000
          hintmask 10101110
          918 588 -100 callgsubr
          -741 -723 rmoveto
          274 hlineto
          207 126 108 235 hvcurveto
          hintmask 01110110
          235 -126 108 -207 vhcurveto
          -274 hlineto
          128 -577 -67 callsubr
          hintmask 10110110
          399 -109 rmoveto
          -82 callgsubr
          endchar
        </CharString>
        <CharString name="uni01C6">
          448 -12 103 -91 98 330 98 -91 103 50 135 -27 callsubr
          542 600 -100 callgsubr
          -68 -723 rmoveto
          -82 callgsubr
          hintmask 10011110
          -332 35 -55 callsubr
          endchar
        </CharString>
        <CharString name="uni01C7">
          485 -12 108 -96 111 575 -20 0 callgsubr
          419 62 callsubr
          hintmask 01111100
          71 hmoveto
          -1 callgsubr
          hintmask 10111100
          770 -698 15 callsubr
        </CharString>
        <CharString name="uni01C8">
          207 -182 97 85 111 415 -20 102 115 -37 -20 0 callgsubr
          463 120 hintmask 11110110
          662 11 callgsubr
          -591 -723 rmoveto
          492 111 -364 hlineto
          hintmask 11101110
          575 -128 vlineto
          582 -868 -84 callgsubr
        </CharString>
        <CharString name="uni01C9">
          -126 73 callgsubr
          115 hstem
          70 120 139 45 callgsubr
          723 -48 callgsubr
          259 -115 -13 callgsubr
          -9 -905 -84 callgsubr
        </CharString>
        <CharString name="uni01CA">
          615 50 callsubr
          hstemhm
          46 callgsubr
          97 62 callsubr
          hintmask 00000000
          hintmask 00111111
          -19 callgsubr
          hintmask 10011111
          900 -698 -62 callsubr
          hintmask 01011111
          37 -127 -36 vlineto
          hintmask 10011111
          25 callgsubr
        </CharString>
        <CharString name="uni01CB">
          337 73 callgsubr
          78 -78 115 hstemhm
          46 callgsubr
          141 120 hintmask 11101111
          792 11 callgsubr
          -721 -723 rmoveto
          123 411 hlineto
          17 -2 33 5 99 callsubr
          -4 15 -29 16 -23 rlinecurve
          300 -413 rlineto
          120 hlineto
          hintmask 11110111
          686 -123 -408 vlineto
          -72 callgsubr
          hlineto
          712 -868 -84 callgsubr
        </CharString>
        <CharString name="uni01CC">
          207 -182 97 106 34 callgsubr
          102 115 4 callgsubr
          137 120 hintmask 11101111
          662 11 callgsubr
          -592 -723 rmoveto
          120 306 hlineto
          24 callsubr
          hintmask 11011111
          46 callsubr
          583 -708 -84 callgsubr
        </CharString>
        <CharString name="uni01CD">
          -81 callgsubr
          47 135 57 callgsubr
          298 733 -100 callgsubr
          -188 -868 -103 callgsubr
        </CharString>
        <CharString name="uni01CE">
          -56 callgsubr
          50 135 85 callsubr
          224 588 -100 callgsubr
          80 -2 callsubr
          hintmask 01111011
          -107 callsubr
          hintmask 10111101
          -105 callsubr
          endchar
        </CharString>
        <CharString name="uni01CF">
          12 callgsubr
          67 135 69 callsubr
          85 733 -100 callgsubr
          97 -868 -41 callsubr
        </CharString>
        <CharString name="uni01D0">
          33 callsubr
          82 135 hstem
          79 120 vstem
          85 588 -100 callgsubr
          100 113 callsubr
          endchar
        </CharString>
        <CharString name="uni01D1">
          134 108 callsubr
          -30 callgsubr
          335 733 -100 callgsubr
          160 -880 -107 callgsubr
          endchar
        </CharString>
        <CharString name="uni01D2">
          -33 callgsubr
          50 135 3 callsubr
          242 588 -100 callgsubr
          160 -85 callgsubr
        </CharString>
        <CharString name="uni01D3">
          -42 callgsubr
          67 135 -7 callsubr
          307 733 -100 callgsubr
          159 -880 rmoveto
          -103 callsubr
          endchar
        </CharString>
        <CharString name="uni01D4">
          -23 callgsubr
          82 135 hstemhm
          -48 callsubr
          hintmask 10111100
          241 588 -100 callgsubr
          102 -735 -86 callsubr
        </CharString>
        <CharString name="uni01D5">
          -42 callgsubr
          92 110 61 82 8 callgsubr
          hintmask 00000000
          hintmask 11111110
          208 929 -43 callsubr
          -1 -253 -16 callsubr
          -49 -880 rmoveto
          -103 callsubr
          endchar
        </CharString>
        <CharString name="uni01D6">
          -23 callgsubr
          107 110 61 82 8 callsubr
          1 callgsubr
          hintmask 1011101100000000
          142 784 -43 callsubr
          -1 -253 -96 callgsubr
          hintmask 1011110010000000
          -106 -735 -83 callsubr
        </CharString>
        <CharString name="uni01D7">
          -42 callgsubr
          92 110 35 132 8 callgsubr
          hintmask 11111001
          313 903 -94 callsubr
          hintmask 11111110
          -187 -277 -16 callsubr
          -49 -880 rmoveto
          -103 callsubr
          endchar
        </CharString>
        <CharString name="uni01D8">
          -23 callgsubr
          107 110 35 132 8 callsubr
          hintmask 1011110010000000
          247 758 -94 callsubr
          hintmask 1011101100000000
          -187 -277 -96 callgsubr
          hintmask 1011110010000000
          -106 -735 -83 callsubr
        </CharString>
        <CharString name="uni01D9">
          -42 callgsubr
          92 110 32 135 8 callgsubr
          hintmask 11111001
          307 900 -100 callgsubr
          hintmask 11111110
          6 -277 -16 callsubr
          -49 -880 rmoveto
          -103 callsubr
          endchar
        </CharString>
        <CharString name="uni01DA">
          -23 callgsubr
          107 110 32 135 8 callsubr
          hintmask 1011110010000000
          241 755 -100 callgsubr
          hintmask 1011101100000000
          6 -277 -96 callgsubr
          hintmask 1011110010000000
          -106 -735 -83 callsubr
        </CharString>
        <CharString name="uni01DB">
          -42 callgsubr
          92 110 35 132 8 callgsubr
          hintmask 11111001
          313 903 -67 callgsubr
          hintmask 11111110
          2 -274 -16 callsubr
          -49 -880 rmoveto
          -103 callsubr
          endchar
        </CharString>
        <CharString name="uni01DC">
          -23 callgsubr
          107 110 35 132 8 callsubr
          hintmask 1011110010000000
          247 758 -67 callgsubr
          hintmask 1011101100000000
          2 -274 -96 callgsubr
          hintmask 1011110010000000
          -106 -735 -83 callsubr
        </CharString>
        <CharString name="uni01EA">
          134 -182 68 102 -73 callgsubr
          hstem
          1 callsubr
          225 95 109 131 vstem
          735 343 rmoveto
          241 -131 114 -215 -215 -130 -114 -241 -241 130 -114 215 14 15 1 1 13 vhcurveto
          -18 -22 -13 -25 -36 vvcurveto
          -68 55 -21 49 23 21 5 9 24 vhcurveto
          54 callsubr
          28 21 28 13 14 hvcurveto
          130 42 76 110 183 vvcurveto
          -560 -11 rmoveto
          21 vlineto
          157 76 80 138 139 76 -80 -157 vhcurveto
          -21 vlineto
          -18 callgsubr
          endchar
        </CharString>
        <CharString name="uni01EB">
          -182 68 102 98 354 98 hstem
          37 124 127 95 48 124 vstem
          555 263 rmoveto
          189 -87 86 -172 -172 -87 -86 -189 -189 87 -86 172 8 7 0 1 7 vhcurveto
          -17 -22 -13 -25 -35 vvcurveto
          -68 55 -21 49 23 21 5 9 24 vhcurveto
          54 callsubr
          27 20 28 13 14 hvcurveto
          92 35 47 83 138 vvcurveto
          -394 -7 rmoveto
          14 vlineto
          114 38 56 97 96 39 -56 -114 vhcurveto
          -14 vlineto
          -1 callsubr
          endchar
        </CharString>
        <CharString name="uni01F1">
          689 55 callsubr
          -51 callsubr
          348 131 vstem
          37 callgsubr
          670 -686 rmoveto
          -75 callsubr
          -542 48 -67 callsubr
          endchar
        </CharString>
        <CharString name="uni01F2">
          87 callgsubr
          0 callgsubr
          348 131 hintmask 10111100
          37 callgsubr
          hintmask 01111100
          128 -577 -67 callsubr
          hintmask 10111100
          399 -109 rmoveto
          -82 callgsubr
          endchar
        </CharString>
        <CharString name="uni01F3">
          448 -12 103 -91 98 330 98 -91 103 185 -20 -27 callsubr
          368 12 rmoveto
          -82 callgsubr
          hintmask 10011110
          -332 35 -55 callsubr
          endchar
        </CharString>
        <CharString name="uni01F4">
          -36 callsubr
          38 132 9 callgsubr
          hintmask 10111101
          544 865 19 callsubr
          -70 -475 -86 callgsubr
        </CharString>
        <CharString name="uni01F5">
          -20 callsubr
          53 132 -26 callgsubr
          -117 116 hintmask 1111100110000000
          65 callgsubr
          hintmask 1111110001000000
          -172 -76 callgsubr
        </CharString>
        <CharString name="uni0200">
          -81 callgsubr
          50 132 57 callgsubr
          242 736 -96 callsubr
          -300 -865 -103 callgsubr
        </CharString>
        <CharString name="uni0201">
          -9 callsubr
          168 591 -96 callsubr
          -32 -732 -77 callsubr
          hintmask 01111011
          -107 callsubr
          hintmask 10111101
          -105 callsubr
          endchar
        </CharString>
        <CharString name="uni0202">
          -81 callgsubr
          102 80 57 callgsubr
          196 -69 callgsubr
          -192 -90 callsubr
          endchar
        </CharString>
        <CharString name="uni0203">
          -56 callgsubr
          55 130 -80 80 -60 callgsubr
          1 callgsubr
          hintmask 1011101010000000
          122 81 callgsubr
          hintmask 1011011010000000
          -5 callsubr
          hintmask 1011101010000000
          -35 callsubr
          hintmask 1011011010000000
          61 -41 69 -115 vhcurveto
          hintmask 1011101010000000
          -115 -40 -69 -61 hvcurveto
          hintmask 1011011010000000
          76 16 callsubr
          hintmask 0111010110000000
          -107 callsubr
          hintmask 1011011010000000
          -105 callsubr
          endchar
        </CharString>
        <CharString name="uni0204">
          -74 callsubr
          50 132 -51 callsubr
          vstem
          224 736 -96 callsubr
          -215 -865 -87 callsubr
        </CharString>
        <CharString name="uni0205">
          14 callgsubr
          168 591 -96 callsubr
          59 -732 -104 callgsubr
        </CharString>
        <CharString name="uni0206">
          -74 callsubr
          102 80 -51 callsubr
          vstem
          178 -69 callgsubr
          -107 -738 -87 callsubr
        </CharString>
        <CharString name="uni0207">
          -53 callgsubr
          55 130 -80 80 60 callgsubr
          hintmask 00000000
          hintmask 11110110
          122 81 callgsubr
          hintmask 11101110
          -5 callsubr
          hintmask 11110110
          -35 callsubr
          hintmask 11101110
          61 -41 69 -115 vhcurveto
          hintmask 11110110
          -115 -40 -69 -61 hvcurveto
          hintmask 11101110
          167 -605 -104 callgsubr
        </CharString>
        <CharString name="uni0208">
          -366 21 callgsubr
          76 127 vstem
          29 736 -96 callsubr
          -15 -865 -41 callsubr
        </CharString>
        <CharString name="uni0209">
          -366 21 32 callgsubr
          vstem
          29 591 -96 callsubr
          -12 -720 -33 callsubr
        </CharString>
        <CharString name="uni020A">
          12 callgsubr
          122 80 69 callsubr
          -17 -69 callgsubr
          93 -738 -41 callsubr
        </CharString>
        <CharString name="uni020B">
          33 callsubr
          87 106 callsubr
          79 120 hintmask 00000000
          hintmask 11101000
          -17 81 callgsubr
          hintmask 11011000
          -5 callsubr
          hintmask 11101000
          -35 callsubr
          hintmask 11011000
          61 -41 69 -115 vhcurveto
          hintmask 11101000
          -115 -40 -69 -61 hvcurveto
          hintmask 11011000
          96 -593 -33 callsubr
        </CharString>
        <CharString name="uni020C">
          -80 callsubr
          38 132 -30 callgsubr
          279 736 -96 callsubr
          48 -877 -107 callgsubr
          endchar
        </CharString>
        <CharString name="uni020D">
          -2 callgsubr
          186 591 -96 callsubr
          48 -732 -104 callsubr
        </CharString>
        <CharString name="uni020E">
          -80 callsubr
          90 80 -30 callgsubr
          233 -69 callgsubr
          156 -750 -107 callgsubr
          endchar
        </CharString>
        <CharString name="uni020F">
          -33 callgsubr
          55 130 -80 80 22 callgsubr
          hintmask 00000000
          hintmask 11101100
          140 81 callgsubr
          hintmask 11011100
          -5 callsubr
          hintmask 11101100
          -35 callsubr
          hintmask 11011100
          61 -41 69 -115 vhcurveto
          hintmask 11101100
          -115 -40 -69 -61 hvcurveto
          hintmask 11011100
          156 -605 -104 callsubr
        </CharString>
        <CharString name="uni0210">
          18 callgsubr
          50 132 -51 callsubr
          329 129 vstem
          251 736 -96 callsubr
          -242 -865 rmoveto
          -95 callsubr
          endchar
        </CharString>
        <CharString name="uni0211">
          -274 21 3 callgsubr
          82 132 53 callgsubr
          hintmask 11001100
          75 591 -96 callsubr
          -67 -720 -40 callgsubr
        </CharString>
        <CharString name="uni0212">
          18 callgsubr
          102 80 -51 callsubr
          329 129 vstem
          205 -69 callgsubr
          -134 -738 rmoveto
          -95 callsubr
          endchar
        </CharString>
        <CharString name="uni0213">
          -274 21 3 callgsubr
          84 106 callsubr
          70 120 hintmask 00000000
          hintmask 11001010
          29 81 callgsubr
          hintmask 11000110
          -5 callsubr
          hintmask 11001010
          -35 callsubr
          hintmask 11000110
          61 -41 69 -115 vhcurveto
          hintmask 11001010
          -115 -40 -69 -61 hvcurveto
          hintmask 11000110
          41 -593 20 callgsubr
          hintmask 10010110
          113 vlineto
          hintmask 11000110
          -24 callgsubr
          hintmask 10100110
          -11 83 rlineto
          -99 hlineto
          endchar
        </CharString>
        <CharString name="uni0214">
          -9 callgsubr
          251 736 -96 callsubr
          47 -877 rmoveto
          -103 callsubr
          endchar
        </CharString>
        <CharString name="uni0215">
          -15 callgsubr
          185 591 -96 callsubr
          -10 -732 -86 callsubr
        </CharString>
        <CharString name="uni0216">
          -42 callgsubr
          122 80 -7 callsubr
          205 -69 callgsubr
          155 -750 rmoveto
          -103 callsubr
          endchar
        </CharString>
        <CharString name="uni0217">
          -23 callgsubr
          87 106 callsubr
          -48 callsubr
          hintmask 00000000
          hintmask 10110110
          139 81 callgsubr
          hintmask 10101110
          -5 callsubr
          hintmask 10110110
          -35 callsubr
          hintmask 10101110
          61 -41 69 -115 vhcurveto
          hintmask 10110110
          -115 -40 -69 -61 hvcurveto
          hintmask 10101110
          98 -605 -66 callsubr
          hintmask 01101110
          -81 callsubr
          hintmask 10101110
          -101 callsubr
          vhcurveto
          endchar
        </CharString>
        <CharString name="uni021A">
          -33 -142 96 67 -16 callgsubr
          6 -806 rmoveto
          -65 callgsubr
        </CharString>
        <CharString name="uni021B">
          -330 -142 96 34 98 342 98 hstemhm
          77 120 -89 120 hintmask 11110000
          -43 callgsubr
          -93 -218 rmoveto
          hintmask 11101000
          -65 callgsubr
        </CharString>
        <CharString name="uni0232">
          62 callgsubr
          96 82 hstem
          271 127 vstem
          181 762 -43 callsubr
          90 -844 rmoveto
          -89 callsubr
          endchar
        </CharString>
        <CharString name="uni0232.loclGUA">
          -14 callsubr
          96 82 -51 callsubr
          269 128 vstem
          181 762 -43 callsubr
          143 -856 -99 callgsubr
        </CharString>
        <CharString name="uni0233">
          45 callsubr
          111 82 hstem
          10 516 vstem
          115 617 -43 callsubr
          24 -881 -101 callgsubr
          endchar
        </CharString>
</ttFont>
